<?xml version="1.0" encoding="utf-8"?>
<!-- Generator: Adobe Illustrator 23.1.0, SVG Export Plug-In . SVG Version: 6.00 Build 0)  -->
<svg version="1.1" id="Layer_1" xmlns="http://www.w3.org/2000/svg" xmlns:xlink="http://www.w3.org/1999/xlink" x="0px" y="0px"
	 viewBox="0 0 1000 500" style="enable-background:new 0 0 1000 500;" xml:space="preserve">
<style type="text/css">
	.st0{fill:url(#SVGID_1_);}
	.st1{fill:url(#SVGID_2_);}
	.st2{fill:url(#SVGID_3_);}
	.st3{fill:url(#SVGID_4_);}
	.st4{fill:#0F1333;}
	.st5{fill:url(#SVGID_5_);}
	.st6{fill:url(#SVGID_6_);}
	.st7{fill:url(#SVGID_7_);}
	.st8{fill:url(#SVGID_8_);}
	.st9{fill:#FFFFFF;}
</style>
<g>
	<g>
		<linearGradient id="SVGID_1_" gradientUnits="userSpaceOnUse" x1="294.099" y1="346.1287" x2="294.099" y2="154.3634">
			<stop  offset="0" style="stop-color:#EF4860"/>
			<stop  offset="1" style="stop-color:#F37A6C"/>
		</linearGradient>
		<path class="st0" d="M334.9,236l-21.5-21.5l-29.7,5.9c-2.6,0.5-5.1-1.5-5.1-4.2v-36.5l-25.3-25.3v59.5c0,8.4,3.3,16.4,9.2,22.3v0
			c7.5,7.5,18.1,10.7,28.5,8.6L334.9,236z"/>
		<linearGradient id="SVGID_2_" gradientUnits="userSpaceOnUse" x1="203.2505" y1="346.1287" x2="203.2505" y2="154.3634">
			<stop  offset="0" style="stop-color:#EF4860"/>
			<stop  offset="1" style="stop-color:#F37A6C"/>
		</linearGradient>
		<path class="st1" d="M244.1,154.4l-25.3,25.3v36.5c0,2.7-2.5,4.7-5.1,4.2l-29.7-5.9L162.4,236l43.9,8.8c10.3,2.1,21-1.2,28.5-8.6
			l0,0c5.9-5.9,9.2-13.9,9.2-22.3V154.4z"/>
		<linearGradient id="SVGID_3_" gradientUnits="userSpaceOnUse" x1="203.2505" y1="346.1287" x2="203.2505" y2="154.3634">
			<stop  offset="0" style="stop-color:#EF4860"/>
			<stop  offset="1" style="stop-color:#F37A6C"/>
		</linearGradient>
		<path class="st2" d="M162.4,264l21.5,21.5l29.7-5.9c2.6-0.5,5.1,1.5,5.1,4.2v36.5l25.3,25.3v-59.5c0-8.4-3.3-16.4-9.2-22.3h0
			c-7.5-7.5-18.1-10.7-28.5-8.6L162.4,264z"/>
		<linearGradient id="SVGID_4_" gradientUnits="userSpaceOnUse" x1="294.099" y1="346.1287" x2="294.099" y2="154.3634">
			<stop  offset="0" style="stop-color:#EF4860"/>
			<stop  offset="1" style="stop-color:#F37A6C"/>
		</linearGradient>
		<path class="st3" d="M253.3,345.6l25.3-25.3v-36.5c0-2.7,2.5-4.7,5.1-4.2l29.7,5.9l21.5-21.5l-43.9-8.8c-10.3-2.1-21,1.2-28.5,8.6
			l0,0c-5.9,5.9-9.2,13.9-9.2,22.3V345.6z"/>
	</g>
	<g>
		<path class="st4" d="M435.4,248.8l59.5,71.4h-34L408.9,256v64.3h-28.1V179.8h28.1v63.1l52.1-63.1h33.8L435.4,248.8z"/>
		<path class="st4" d="M538.5,202.1v36.4h49.8V260h-49.8v37.8h55.7v22.5h-83.8V179.8h83.8v22.3H538.5z"/>
		<path class="st4" d="M713.7,259.9c5.1,6.3,7.7,13.7,7.7,22.2c0,11.8-3.9,21.1-11.8,28c-7.9,6.8-19.3,10.2-34.3,10.2h-60.3V179.8
			H674c14.2,0,25.1,3.1,32.7,9.4c7.6,6.2,11.4,15,11.4,26.3c0,8.8-2.3,15.9-6.9,21.5c-4.6,5.6-10.6,9.2-18,10.9
			C701.8,249.5,708.6,253.6,713.7,259.9z M643,238.7h25.3c7,0,12.4-1.6,16-4.7c3.6-3.1,5.5-7.6,5.5-13.4c0-5.8-1.8-10.3-5.4-13.5
			c-3.6-3.2-9.1-4.8-16.5-4.8H643V238.7z M686.7,292.5c4-3.2,6-8,6-14.2c0-6.2-2-11-6.1-14.4c-4-3.4-9.8-5.1-17.2-5.1H643v38.6h26.7
			C677.1,297.4,682.8,295.8,686.7,292.5z"/>
		<path class="st4" d="M832.2,301.7c-3.6,6-8.9,10.9-15.9,14.5c-7,3.6-15.6,5.5-25.7,5.5c-10,0-18.8-1.7-26.7-5.1
			c-7.8-3.4-14.1-8.3-18.8-14.6c-4.7-6.4-7.4-13.8-8.1-22.3h29.8c0.7,5.7,3,10.4,6.9,14.2c3.9,3.8,9.1,5.7,15.6,5.7
			c5.8,0,10.3-1.6,13.4-4.7c3.1-3.1,4.7-7.1,4.7-12c0-4.4-1.3-8-3.8-10.8c-2.5-2.9-5.7-5.1-9.6-6.9c-3.8-1.7-9.2-3.7-15.9-6
			c-8.8-2.9-15.9-5.8-21.5-8.7c-5.6-2.9-10.3-7-14.2-12.4c-3.9-5.4-5.9-12.5-5.9-21.3c0-12.1,4.3-21.6,13-28.6
			c8.7-7,20.2-10.4,34.5-10.4c14.9,0,26.7,3.6,35.5,10.7c8.8,7.2,13.8,16.7,15,28.7h-30.2c-0.8-5-2.9-9.2-6.4-12.4
			c-3.5-3.2-8.2-4.9-14.1-4.9c-5.2,0-9.4,1.4-12.5,4.1c-3.2,2.7-4.8,6.7-4.8,11.8c0,4.1,1.2,7.5,3.7,10.2c2.5,2.7,5.6,4.9,9.4,6.7
			c3.8,1.7,8.9,3.6,15.4,5.8c9,3.2,16.3,6.2,22,9c5.6,2.8,10.4,7,14.4,12.5c4,5.6,6,12.9,6,21.9C837.6,289,835.8,295.6,832.2,301.7z
			"/>
	</g>
</g>
</svg>
