<?xml version="1.0" encoding="utf-8"?>
<!-- Generator: Adobe Illustrator 23.1.0, SVG Export Plug-In . SVG Version: 6.00 Build 0)  -->
<svg version="1.1" id="Layer_1" xmlns="http://www.w3.org/2000/svg" xmlns:xlink="http://www.w3.org/1999/xlink" x="0px" y="0px"
	 viewBox="0 0 500 500" style="enable-background:new 0 0 500 500;" xml:space="preserve">
<style type="text/css">
	.st0{fill:#FFFFFF;}
	.st1{fill:url(#SVGID_1_);}
	.st2{fill:url(#SVGID_2_);}
	.st3{fill:url(#SVGID_3_);}
	.st4{fill:url(#SVGID_4_);}
</style>
<g>
	<g>
		<path class="st0" d="M362.8,231.7l-28.1-28.1l-38.8,7.7c-3.4,0.7-6.7-2-6.7-5.5v-47.7L256.1,125v77.8c0,11,4.3,21.4,12,29.2l0,0
			c9.8,9.8,23.7,14,37.3,11.2L362.8,231.7z"/>
		<path class="st0" d="M244.1,125L211,158.1v47.7c0,3.5-3.3,6.1-6.7,5.5l-38.8-7.7l-28.2,28.1l57.4,11.5
			c13.5,2.7,27.5-1.6,37.3-11.2l0,0c7.7-7.7,12-18.2,12-29.2V125H244.1z"/>
		<path class="st0" d="M137.2,268.3l28.1,28.1l38.8-7.7c3.4-0.7,6.7,2,6.7,5.5v47.7l33.1,33.1v-77.8c0-11-4.3-21.4-12-29.2l0,0
			c-9.8-9.8-23.7-14-37.3-11.2L137.2,268.3z"/>
		<path class="st0" d="M256.1,375l33.1-33.1v-47.7c0-3.5,3.3-6.1,6.7-5.5l38.8,7.7l28.1-28.1l-57.4-11.5
			c-13.5-2.7-27.5,1.6-37.3,11.2l0,0c-7.7,7.7-12,18.2-12,29.2L256.1,375L256.1,375z"/>
	</g>
</g>
</svg>
