<svg xmlns="http://www.w3.org/2000/svg" width="346.694" height="369.316" viewBox="0 0 346.694 369.316">
  <g id="Banner_Image_1" data-name="Banner Image 1" transform="translate(-249.848 -267)">
    <path id="Path_1656" data-name="Path 1656" d="M417.757,232.272c-23.343,34.949-73.156,143.037-60.9,183.151l-178.707.041s-25.823-19.226-50.909-52.653c-4.559-6.073-9.094-12.621-13.44-19.6a244.174,244.174,0,0,1-13.022-23.638c-11.63-24.211-19.93-52.268-20.265-83.28C79.34,128.939,172.254,29.167,298.652,69.428S441.091,197.323,417.757,232.272Z" transform="translate(169.769 206.693)" fill="#eaf9f8" opacity="0.23"/>
    <g id="Group_3088" data-name="Group 3088" transform="translate(169.769 206.693)">
      <g id="Group_3084" data-name="Group 3084">
        <path id="Path_1657" data-name="Path 1657" d="M305.944,416.689a1.229,1.229,0,0,1-.958-.458l-95.3-118.494a1.228,1.228,0,1,1,1.913-1.54l95.3,118.494a1.228,1.228,0,0,1-.956,2Z" fill="#e03c03"/>
      </g>
      <g id="Group_3085" data-name="Group 3085">
        <path id="Path_1658" data-name="Path 1658" d="M158.111,416.689a1.229,1.229,0,0,1-.956-2l95.3-118.494a1.228,1.228,0,0,1,1.914,1.54l-95.3,118.494A1.229,1.229,0,0,1,158.111,416.689Z" fill="#cf0001"/>
      </g>
      <g id="Group_3086" data-name="Group 3086">
        <path id="Path_1659" data-name="Path 1659" d="M253.415,416.689a1.229,1.229,0,0,1-.958-.458l-95.3-118.494a1.228,1.228,0,0,1,1.914-1.54l95.3,118.494a1.228,1.228,0,0,1-.956,2Z" fill="#cf0001"/>
      </g>
      <path id="Path_1660" data-name="Path 1660" d="M175,300.113H130.723a3.147,3.147,0,0,1-3.146-3.146h0a3.146,3.146,0,0,1,3.146-3.145H175a3.146,3.146,0,0,1,3.146,3.145h0A3.147,3.147,0,0,1,175,300.113Z" fill="#e03c03"/>
      <path id="Path_1661" data-name="Path 1661" d="M302.392,300.113H175.844a3.146,3.146,0,0,1-3.145-3.146h0a3.145,3.145,0,0,1,3.145-3.145H302.392Z" fill="#cf0001"/>
      <g id="Group_3087" data-name="Group 3087">
        <path id="Path_1662" data-name="Path 1662" d="M209.2,356.214a3.436,3.436,0,1,1-3.436-3.436A3.436,3.436,0,0,1,209.2,356.214Z" fill="#e03c03"/>
      </g>
      <path id="Path_1663" data-name="Path 1663" d="M261.728,356.214a3.436,3.436,0,1,1-3.436-3.436A3.436,3.436,0,0,1,261.728,356.214Z" fill="#ffc947"/>
    </g>
    <g id="Group_3089" data-name="Group 3089" transform="translate(169.769 206.693)">
      <rect id="Rectangle_1150" data-name="Rectangle 1150" width="52.583" height="41.15" rx="3.988" transform="translate(167.413 158.754)" fill="#ff9a7b"/>
      <path id="Path_1664" data-name="Path 1664" d="M199.16,174.389h-1.242a7.426,7.426,0,0,0-.838-1.912l.959-.959a.936.936,0,0,0,0-1.323l-1.349-1.349a.937.937,0,0,0-1.324,0l-1.019,1.019a7.414,7.414,0,0,0-1.8-.727V167.61a.936.936,0,0,0-.936-.935H189.7a.936.936,0,0,0-.936.935v1.545a7.515,7.515,0,0,0-1.751.7l-1.118-1.118a.936.936,0,0,0-1.324,0l-1.349,1.349a.936.936,0,0,0,0,1.324l1.036,1.036a7.511,7.511,0,0,0-.814,1.787h-1.457a.936.936,0,0,0-.936.935v1.908a.936.936,0,0,0,.936.936h1.276a7.371,7.371,0,0,0,.717,2l-.871.871a.937.937,0,0,0,0,1.324l1.349,1.349a.935.935,0,0,0,1.323,0l.758-.757a7.425,7.425,0,0,0,2.065.934v1.059a.936.936,0,0,0,.936.936h1.908a.936.936,0,0,0,.935-.936V183.8a7.49,7.49,0,0,0,2.141-.863l.729.729a.935.935,0,0,0,1.323,0l1.349-1.349a.936.936,0,0,0,0-1.323l-.749-.749a7.465,7.465,0,0,0,.823-2.074h1.162a.936.936,0,0,0,.935-.936v-1.908A.935.935,0,0,0,199.16,174.389Zm-7.568,6.785a4.811,4.811,0,1,1,3.778-3.778A4.815,4.815,0,0,1,191.592,181.174Z" transform="translate(3.131 3.131)" fill="#fff"/>
    </g>
    <g id="Group_3095" data-name="Group 3095" transform="translate(169.769 206.693)">
      <rect id="Rectangle_1151" data-name="Rectangle 1151" width="52.583" height="41.15" rx="3.988" transform="translate(234.568 136.023)" fill="#cf0001"/>
      <rect id="Rectangle_1159" data-name="Rectangle 1159" width="6" height="8" rx="2" transform="translate(250.231 162.306)" fill="#fff" opacity="0.3"/>
      <rect id="Rectangle_1160" data-name="Rectangle 1160" width="6" height="15" rx="2" transform="translate(258.231 155.306)" fill="#fff" opacity="0.7"/>
      <rect id="Rectangle_1161" data-name="Rectangle 1161" width="6" height="26" rx="2" transform="translate(266.231 144.306)" fill="#fff"/>
    </g>
    <g id="Group_3099" data-name="Group 3099" transform="translate(169.769 206.693)">
      <g id="Group_3098" data-name="Group 3098">
        <path id="Rectangle_1152" data-name="Rectangle 1152" d="M1.66,0H109.018a1.66,1.66,0,0,1,1.66,1.66v3.4a0,0,0,0,1,0,0H0a0,0,0,0,1,0,0V1.66A1.66,1.66,0,0,1,1.66,0Z" transform="translate(212.751 180.023)" fill="#fff"/>
        <path id="Rectangle_1153" data-name="Rectangle 1153" d="M0,0H110.677a0,0,0,0,1,0,0V55.915a3.09,3.09,0,0,1-3.09,3.09H3.09A3.09,3.09,0,0,1,0,55.915V0A0,0,0,0,1,0,0Z" transform="translate(212.751 185.079)" fill="#383873"/>
        <g id="Group_3097" data-name="Group 3097">
          <g id="Group_3096" data-name="Group 3096">
            <path id="Path_1668" data-name="Path 1668" d="M318.116,182.551a.778.778,0,1,1-.778-.778A.778.778,0,0,1,318.116,182.551Z" fill="#ff6224"/>
            <path id="Path_1669" data-name="Path 1669" d="M312.768,182.551a.778.778,0,1,1-.778-.778A.778.778,0,0,1,312.768,182.551Z" fill="#ff6224"/>
            <path id="Path_1670" data-name="Path 1670" d="M307.419,182.551a.778.778,0,1,1-.778-.778A.778.778,0,0,1,307.419,182.551Z" fill="#ff6224"/>
          </g>
        </g>
        <path id="Path_1671" data-name="Path 1671" d="M279.948,193.053H218.489a1.069,1.069,0,0,1-1.07-1.069h0a1.07,1.07,0,0,1,1.07-1.07h61.459a1.07,1.07,0,0,1,1.069,1.07h0A1.069,1.069,0,0,1,279.948,193.053Z" fill="#20c3c5"/>
        <path id="Path_1672" data-name="Path 1672" d="M279.948,199.861H218.489a1.07,1.07,0,0,1-1.07-1.07h0a1.07,1.07,0,0,1,1.07-1.07h61.459a1.07,1.07,0,0,1,1.069,1.07h0A1.07,1.07,0,0,1,279.948,199.861Z" fill="#20c3c5"/>
        <path id="Path_1673" data-name="Path 1673" d="M250.628,206.668H218.489a1.07,1.07,0,0,1-1.07-1.07h0a1.07,1.07,0,0,1,1.07-1.07h32.139a1.07,1.07,0,0,1,1.07,1.07h0A1.07,1.07,0,0,1,250.628,206.668Z" fill="#20c3c5"/>
        <path id="Path_1674" data-name="Path 1674" d="M279.948,220.282H218.489a1.07,1.07,0,0,1-1.07-1.07h0a1.07,1.07,0,0,1,1.07-1.069h61.459a1.069,1.069,0,0,1,1.069,1.069h0A1.07,1.07,0,0,1,279.948,220.282Z" fill="#ff6224"/>
        <path id="Path_1675" data-name="Path 1675" d="M250.628,227.089H218.489a1.07,1.07,0,0,1-1.07-1.07h0a1.07,1.07,0,0,1,1.07-1.069h32.139a1.07,1.07,0,0,1,1.07,1.069h0A1.07,1.07,0,0,1,250.628,227.089Z" fill="#ff6224"/>
        <path id="Path_1676" data-name="Path 1676" d="M250.628,233.9H218.489a1.07,1.07,0,0,1-1.07-1.069h0a1.07,1.07,0,0,1,1.07-1.07h32.139a1.07,1.07,0,0,1,1.07,1.07h0A1.07,1.07,0,0,1,250.628,233.9Z" fill="#20c3c5"/>
        <path id="Path_1677" data-name="Path 1677" d="M279.948,206.668h-23.1a1.07,1.07,0,0,1-1.07-1.07h0a1.07,1.07,0,0,1,1.07-1.07h23.1a1.07,1.07,0,0,1,1.069,1.07h0A1.07,1.07,0,0,1,279.948,206.668Z" fill="#fff"/>
        <path id="Path_1678" data-name="Path 1678" d="M310.455,191.382l-16.331,16.331a1.069,1.069,0,0,1-1.513,0h0a1.069,1.069,0,0,1,0-1.513l16.331-16.331a1.069,1.069,0,0,1,1.513,0h0A1.069,1.069,0,0,1,310.455,191.382Z" fill="#ff6224"/>
        <circle id="Ellipse_381" data-name="Ellipse 381" cx="9.63" cy="9.63" r="9.63" transform="translate(289.941 229.424) rotate(-76.661)" fill="#ff6224"/>
        <path id="Path_1679" data-name="Path 1679" d="M300.273,228.987a5.452,5.452,0,1,1-5.451-5.452A5.451,5.451,0,0,1,300.273,228.987Z" fill="#20c3c5"/>
      </g>
      <path id="Path_1680" data-name="Path 1680" d="M212.751,238.114v19.471l17.895-17.895" fill="#383873"/>
    </g>
    <g id="Group_3100" data-name="Group 3100" transform="translate(169.769 206.693)">
      <path id="Path_1681" data-name="Path 1681" d="M193.7,262.848h39.262l14.2,27.326H207.9Z" fill="#86bfbc"/>
      <path id="Path_1682" data-name="Path 1682" d="M208.7,288.153,196.94,265.526a.713.713,0,0,1,.633-1.041h33.966a.712.712,0,0,1,.632.384L243.927,287.5a.712.712,0,0,1-.632,1.041H209.329A.714.714,0,0,1,208.7,288.153Z" fill="#fff"/>
      <rect id="Rectangle_1154" data-name="Rectangle 1154" width="31.799" height="3.648" transform="translate(207.902 290.174)" fill="#b8e3e2"/>
      <path id="Path_1683" data-name="Path 1683" d="M267.02,290.174H235.641A1.824,1.824,0,0,0,233.817,292h0a1.824,1.824,0,0,0,1.824,1.824H267.02A1.824,1.824,0,0,0,268.844,292h0A1.824,1.824,0,0,0,267.02,290.174Z" fill="#9fccc9"/>
      <path id="Path_1684" data-name="Path 1684" d="M207.9,290.174l-14.2-27.326-.712.534a1.169,1.169,0,0,0-.333,1.48l15.243,28.96Z" fill="#b8e3e2"/>
      <rect id="Rectangle_1155" data-name="Rectangle 1155" width="3.501" height="0.607" transform="translate(218.696 291.876)" fill="#9fccc9"/>
      <rect id="Rectangle_1156" data-name="Rectangle 1156" width="3.501" height="0.607" transform="translate(223.096 291.876)" fill="#9fccc9"/>
      <rect id="Rectangle_1157" data-name="Rectangle 1157" width="3.501" height="0.607" transform="translate(227.496 291.876)" fill="#9fccc9"/>
    </g>
    <g id="Group_3101" data-name="Group 3101" transform="translate(169.769 206.693)">
      <path id="Path_1685" data-name="Path 1685" d="M279.483,343.659s-32.567,25.356-37.732,31.8c-1.948,2.439-5.345,6.711-8.864,11.09-5.779,7.2-11.909,14.692-12.637,14.872-1.163.294-10.935-7.145-11.23-8.75-.18-1,8.717-16.271,16.419-28.548,4.69-7.465,8.929-13.833,10.419-15.208,3.937-3.65,28.164-16.484,28.164-16.484Z" fill="#383873"/>
      <path id="Path_1686" data-name="Path 1686" d="M217.334,396.009s30.425-43.307,45.7-50.6" fill="none" stroke="#000" stroke-linecap="round" stroke-miterlimit="10" stroke-width="0.818" opacity="0.15" style="mix-blend-mode: overlay;isolation: isolate"/>
      <path id="Path_1687" data-name="Path 1687" d="M313.425,232.46c-.344.786-.736,1.6-1.178,2.439-2.382,4.551-.622,9.11-3.34,10.272a3.072,3.072,0,0,1-.548.172c-3.5.778-11.573-3.888-11.925-6.22s2.488-6.327,0-6.81-3.831,3.7-3.831,3.7c-2.046.212-2.775-3.217-6.13-3.217a5.622,5.622,0,0,0-1.392.18,11.354,11.354,0,0,0-4.878,3.1,6.658,6.658,0,0,1-2.848-5.615c.237-5.9,2.414-10.206,7.661-11.082.581-6.564,5.983-10.067,13.2-10.288,6.327-.2,7.276,5.492,7.424,6.908a15.906,15.906,0,0,0-1.858-6.908c3.167-.139,5.958,2.12,5.23,9.486.728-2.194,3.282-3.577,5.246-1.973-1.817,0-3.569,3.062-3.569,3.062a12.339,12.339,0,0,1,3.594,3.9C315.5,225.651,315.038,228.736,313.425,232.46Z" fill="#382424"/>
      <path id="Path_1688" data-name="Path 1688" d="M308.907,245.171l-.082,1.081-.278,3.83s-5.827,4.985-9.134,0a.785.785,0,0,0-.074-.1c-1.023-1.522-1.948-2.054-2.791-2.153-1.825-.221-3.3,1.564-4.821-.368a37.121,37.121,0,0,1-6.646-14.487,5.622,5.622,0,0,1,1.392-.18c3.355,0,4.084,3.429,6.13,3.217,0,0,1.342-4.183,3.831-3.7s-.352,4.477,0,6.81c.155,1.039,1.849,2.545,3.994,3.822,2.5,1.5,5.606,2.685,7.579,2.456.123-.017.237-.033.352-.058A3.072,3.072,0,0,0,308.907,245.171Z" fill="#ffad94"/>
      <path id="Path_1689" data-name="Path 1689" d="M309.816,252.3c-2.628,1.793-7.44,2.087-7.44,2.087l-3.937-.581s-1.645-2.39-.876-3.724a4.61,4.61,0,0,1,1.04-1.047,28.149,28.149,0,0,1,4.518-2.9,14.475,14.475,0,0,1,5.041-1.768C311.469,244.181,312.443,250.5,309.816,252.3Z" opacity="0.25" style="mix-blend-mode: overlay;isolation: isolate"/>
      <path id="Path_1690" data-name="Path 1690" d="M309.038,316.141c-5.86,1.13-18.26-2.324-24.194-4.992-1.752-.786-2.947-1.506-3.233-2.014-1.138-2.005.008-3.544,2.832-9.911.319-.721.655-1.5,1.015-2.341,1.915-4.51,1.923-14.127,1.915-22.418-.025-7.1-.057-13.219,1.072-14.307,2.447-2.358,14.659-10.076,14.659-10.076l2.431,12.67s1.375,6.433,2.824,14.831C311.027,293.044,313.957,315.192,309.038,316.141Z" fill="#20c3c5"/>
      <path id="Path_1691" data-name="Path 1691" d="M313.122,321.781c0,.581-5.835,14.192-10.73,16.14s-34.392-.2-34.392-.2l-14.586,9.535,3.053,28.729,2.128,20.02.066.646c-4.461,2.914-15.7,3.7-16.91,1.187a.025.025,0,0,1-.008-.016c-1.171-2.529-19.062-56.4-12.056-65.74s51.924-22.951,51.924-22.951a24.794,24.794,0,0,0,4.01,2.014,76.554,76.554,0,0,0,16.165,4.084c1.858.287,3.487.5,4.731.647,1.572.188,2.521.261,2.521.261S313.122,321.192,313.122,321.781Z" fill="#383873"/>
      <path id="Path_1692" data-name="Path 1692" d="M260.511,415.423H222.582a2.23,2.23,0,0,1,.639-2.038c1.538-1.85,5.393-3.708,9.109-5.312,3.528-1.522,6.917-2.832,8.054-3.732,2.677-2.12,1.441-6.245,1.367-6.5.409.843,1.956,1.318,4,1.457,4.019.286,9.953-.712,12.908-2.644l-.066-.646c1.13,2.16,1.662,12.842,1.842,17.376C260.486,414.637,260.511,415.423,260.511,415.423Z" fill="#0c2059"/>
      <path id="Path_1693" data-name="Path 1693" d="M245.753,399.3c-.114,1.809-.376,4.739-.9,5.525-.777,1.17-9.142,5.254-10.3,4.861a6.933,6.933,0,0,1-2.218-1.612c3.528-1.522,6.917-2.832,8.054-3.732,2.677-2.12,1.441-6.245,1.367-6.5C242.16,398.685,243.707,399.16,245.753,399.3Z" fill="#2e4780"/>
      <path id="Path_1694" data-name="Path 1694" d="M260.511,415.423H222.582a2.23,2.23,0,0,1,.639-2.038h37.216C260.486,414.637,260.511,415.423,260.511,415.423Z" fill="#2e4780"/>
      <path id="Path_1695" data-name="Path 1695" d="M220.25,401.419a87.576,87.576,0,0,1-5.378,11.614c-.99,1.6-1.931,2.644-2.594,2.39-2.333-.876-25.774-20.806-23.532-22.263a3.768,3.768,0,0,1,1.506-.442,45.174,45.174,0,0,1,8.545.344c2.685.278,5.181.581,6.483.581,3.306,0,3.74-.974,3.74-.974a5.982,5.982,0,0,0,1.621,2C213.538,397.416,219.366,401.64,220.25,401.419Z" fill="#0c2059"/>
      <path id="Path_1696" data-name="Path 1696" d="M210.641,394.666a10.852,10.852,0,0,1-11.173.557,2.251,2.251,0,0,1-.671-2.161c2.685.278,5.181.581,6.483.581,3.306,0,3.74-.974,3.74-.974A5.982,5.982,0,0,0,210.641,394.666Z" fill="#2e4780"/>
      <path id="Path_1697" data-name="Path 1697" d="M214.872,413.033c-.99,1.6-1.931,2.644-2.594,2.39-2.333-.876-25.774-20.806-23.532-22.263a3.768,3.768,0,0,1,1.506-.442Z" fill="#2e4780"/>
      <path id="Path_1698" data-name="Path 1698" d="M284.86,291.317c-1.833,2.554-5.115,6.45-7.816,6.057-.1-.016-.205-.033-.336-.057-5.156-.909-35.481-8.513-36.913-8.8-1.457-.287-11.663-.385-11.082-1.457s6.417-4.469,7.972-4.387,7.685,1.858,13.807,1.662,22.173,0,22.173,0l.778-1.343,1.145-1.981C274.269,286.955,281.431,291.8,284.86,291.317Z" fill="#ffad94"/>
      <path id="Path_1699" data-name="Path 1699" d="M284.86,313.464s-1.4,7.439,4.048,9.919" fill="none" stroke="#000" stroke-linecap="round" stroke-miterlimit="10" stroke-width="0.818" opacity="0.15" style="mix-blend-mode: overlay;isolation: isolate"/>
      <path id="Path_1700" data-name="Path 1700" d="M282,319.445s-36.023,15.364-37.752,20.129,9.164,56.435,9.164,56.435" fill="none" stroke="#000" stroke-linecap="round" stroke-miterlimit="10" stroke-width="0.818" opacity="0.15" style="mix-blend-mode: overlay;isolation: isolate"/>
      <path id="Path_1701" data-name="Path 1701" d="M313.122,321.781c0,.581-5.835,14.192-10.73,16.14s-34.392-.2-34.392-.2l-14.586,9.535,3.053,28.729s-6.163-32.813-6.163-34.958c0-1.833,40.744-13.545,51.482-25.8,4.207.663,7.252.908,7.252.908S313.122,321.192,313.122,321.781Z" opacity="0.15" style="mix-blend-mode: overlay;isolation: isolate"/>
      <path id="Path_1702" data-name="Path 1702" d="M293.913,286.963c-2.529,3.585-6.6,8.135-9.47,12.261.319-.721.655-1.5,1.015-2.341,1.915-4.51,1.923-14.127,1.915-22.418l8.733-5.779S298,281.176,293.913,286.963Z" opacity="0.25" style="mix-blend-mode: overlay;isolation: isolate"/>
      <path id="Path_1703" data-name="Path 1703" d="M286.456,290.212c-.376.344-.761.688-1.146,1.007a1.887,1.887,0,0,1-.45.1c-3.429.483-10.591-4.362-10.272-10.3a8.659,8.659,0,0,1,.95-2.48c2.93-5.909,11.745-19.062,13.366-18.456,0,0,5.663.876,7.2,8.61C297.547,275.946,292.349,284.753,286.456,290.212Z" fill="#169799"/>
      <path id="Path_1704" data-name="Path 1704" d="M306.517,315.88c-1.244-.148-2.873-.36-4.731-.647a76.554,76.554,0,0,1-16.165-4.084c4.4-.156,13.825-3.053,14.962-24.62a105.96,105.96,0,0,0,2.374,12.5A170.334,170.334,0,0,1,306.517,315.88Z" opacity="0.25" style="mix-blend-mode: overlay;isolation: isolate"/>
      <path id="Path_1705" data-name="Path 1705" d="M304.193,244.738a14.975,14.975,0,0,0-1.072,1.4,28.149,28.149,0,0,0-4.518,2.9,3.272,3.272,0,0,0-2.055-1.2l3.88-4.886A21.148,21.148,0,0,0,304.193,244.738Z" opacity="0.25" style="mix-blend-mode: overlay;isolation: isolate"/>
      <path id="Path_1706" data-name="Path 1706" d="M284.86,291.317c-1.833,2.554-5.115,6.45-7.816,6.057-.1-.016-.205-.033-.336-.057-3.339-4.829-3.462-11.156-3.265-14.324l1.145-1.981C274.269,286.955,281.431,291.8,284.86,291.317Z" opacity="0.25" style="mix-blend-mode: overlay;isolation: isolate"/>
      <path id="Path_1707" data-name="Path 1707" d="M313.425,232.46c-.344.786-.736,1.6-1.178,2.439a16.487,16.487,0,0,0-1.531,6.3,12.044,12.044,0,0,0-1.2-.819,21.217,21.217,0,0,0-5.328,4.355l-.008.008c-3.569-1.277-7.506-4.011-7.751-5.623-.352-2.333,2.488-6.327,0-6.81s-3.831,3.7-3.831,3.7c-2.046.212-2.775-3.217-6.13-3.217a5.622,5.622,0,0,0-1.392.18,9.952,9.952,0,0,0-3.847,2.12s3.782-5.312,9.716-4.24c0,0-.868-1.653-4.862-1.457,8.365-2.725,13.71-1.653,16.288,1.359C304.479,233.222,309.415,236.266,313.425,232.46Z" opacity="0.25" style="mix-blend-mode: overlay;isolation: isolate"/>
    </g>
    <g id="Group_3102" data-name="Group 3102" transform="translate(169.769 206.693)">
      <path id="Path_1708" data-name="Path 1708" d="M330.433,347.26H301.254s23.147-6.81,23.147-52.71c0-.589,0-1.17-.008-1.751-.238-30.677-6.794-47.6-14.872-52.416a35.1,35.1,0,0,1,10.337-3.92,54.241,54.241,0,0,1,6.442-1.04c19.979-2.038,35.939,5.795,37.838,14.659S354.349,347.26,330.433,347.26Z" fill="#b8e3e2"/>
      <path id="Path_1709" data-name="Path 1709" d="M324.4,294.55c0,45.9-23.147,52.71-23.147,52.71h-47.84l1.989-1.416,12.6-8.119,25.282-1.752c1.359-5.639,5.059-5.827,10.7-6.417,3.282-.335,3.6-5.876,2.6-13.2a167.612,167.612,0,0,0-3.626-17.327,105.96,105.96,0,0,1-2.374-12.5,109.3,109.3,0,0,1-.908-13.48,113.946,113.946,0,0,1,2.349-23.916c.114-.581.237-1.138.36-1.67,0-.016.008-.041.008-.057a11.772,11.772,0,0,1,1.793-2.66l.008-.008a21.217,21.217,0,0,1,5.328-4.355,12.044,12.044,0,0,1,1.2.819c7.522,5.729,13.448,22.451,13.677,51.6C324.4,293.38,324.4,293.961,324.4,294.55Z" fill="#86bfbc"/>
      <path id="Path_1710" data-name="Path 1710" d="M315.169,415.423H280.727a1.239,1.239,0,0,1-.761-2.218l8.618-6.744a15.813,15.813,0,0,0,6.057-12.441V347.26h6.613v46.76a15.8,15.8,0,0,0,6.065,12.441l8.611,6.744A1.24,1.24,0,0,1,315.169,415.423Z" fill="#b8e3e2"/>
      <path id="Path_1711" data-name="Path 1711" d="M341.437,237.185s3.428,8.769,5.719,26.441c3.275,25.256-.352,61.168-24.037,82.392" fill="none" stroke="#000" stroke-linecap="round" stroke-miterlimit="10" stroke-width="0.818" stroke-dasharray="4.092" opacity="0.25" style="mix-blend-mode: overlay;isolation: isolate"/>
      <path id="Path_1712" data-name="Path 1712" d="M301.254,347.26v12.768a46.465,46.465,0,0,1-6.613,2.783V347.26Z" opacity="0.15" style="mix-blend-mode: overlay;isolation: isolate"/>
      <path id="Path_1713" data-name="Path 1713" d="M310.4,327.42c-1.555,4.862-11.27,3.991-12.449,7.587-2.5,7.631-3.888,4.273-13.505,5.247-5.5.556-9.494,4.084-11.9,7.006H253.414l1.989-1.416,12.6-8.119,25.282-1.752c1.359-5.639,5.059-5.827,10.7-6.417,3.282-.335,3.6-5.876,2.6-13.2a167.612,167.612,0,0,0-3.626-17.327,105.96,105.96,0,0,1-2.374-12.5,109.3,109.3,0,0,1-.908-13.48C303.415,292.545,311.551,323.819,310.4,327.42Z" opacity="0.15" style="mix-blend-mode: overlay;isolation: isolate"/>
      <path id="Path_1714" data-name="Path 1714" d="M324.4,294.55c0-.589,0-1.17-.008-1.751-.238-30.677-6.794-47.6-14.872-52.416a35.1,35.1,0,0,1,10.337-3.92c-1.334,1.923-2.725,4.812-2.07,7.9,1.17,5.459,14.4,26.461,9.339,60.109-3.651,24.276-2.439,36.9,1.375,42.79H301.254S324.4,340.45,324.4,294.55Z" opacity="0.15" style="mix-blend-mode: overlay;isolation: isolate"/>
    </g>
    <path id="Path_1715" data-name="Path 1715" d="M157.456,269.546a15.025,15.025,0,0,1-.311,2.962h-9.388a29.3,29.3,0,0,1-9.961-10.9c2.513,2.734,6.8,6.065,11.172,7.08C152.782,269.57,155.623,269.194,157.456,269.546Z" transform="translate(169.769 206.693)" opacity="0.25" style="mix-blend-mode: overlay;isolation: isolate"/>
    <g id="Group_3103" data-name="Group 3103" transform="translate(169.769 206.693)">
      <path id="Path_1716" data-name="Path 1716" d="M179.26,232.272c-1.047,3.806-5.852,11.189-10.239,19.1-4.8,8.627-9.085,17.868-7.407,23.736a13.052,13.052,0,0,1,.606,3.331c.016,2.554-1.924,1.76-3.88.311a35.6,35.6,0,0,1-4.019-3.642l.148-11.377s-6.45-5.926-1.155-18.89q.5-1.229,1.155-2.554c7.292-14.733,18.227-30.194,7.873-34.573C176.641,206.834,181.454,224.308,179.26,232.272Z" fill="#20c3c5"/>
      <path id="Path_1717" data-name="Path 1717" d="M162.342,207.71s7.44,1.167,8.752,11.378-18.962,37.645-15.607,46.975" fill="none" stroke="#000" stroke-linecap="round" stroke-miterlimit="10" stroke-width="0.818" opacity="0.53" style="mix-blend-mode: overlay;isolation: isolate"/>
      <path id="Path_1718" data-name="Path 1718" d="M172.7,255.263c-4.371,11.524,0,20.266-6.564,21.51-3,.573-4.33-1.654-4.878-4.24a23.387,23.387,0,0,1-.221-6.621,22.318,22.318,0,0,1,3.454-5.615A13.856,13.856,0,0,1,172.7,255.263Z" fill="#169799"/>
      <path id="Path_1719" data-name="Path 1719" d="M157.456,269.546c-.025,2.684-.63,4.96-1.874,6.155a4.134,4.134,0,0,1-.361.319c-3.1,2.512-5.082-2.087-5.082-2.087s-8.25-4.068-12.343-12.327c-3.135-6.343-3.83-15.166,3.544-26.51,1.081,8.078,5.508,13.578,9.9,18.8v.008c.548.655,1.088,1.294,1.628,1.94A22.493,22.493,0,0,1,157.456,269.546Z" fill="#b8e3e2"/>
      <path id="Path_1720" data-name="Path 1720" d="M141.337,235.1s-2.479,10.1,1.313,18.416,12.4,12.107,11.67,20.129" fill="none" stroke="#000" stroke-linecap="round" stroke-miterlimit="10" stroke-width="0.818" opacity="0.53" style="mix-blend-mode: overlay;isolation: isolate"/>
      <path id="Path_1721" data-name="Path 1721" d="M172.7,255.263s-9.773,10.648-11.086,19.838" fill="none" stroke="#000" stroke-linecap="round" stroke-miterlimit="10" stroke-width="0.818" opacity="0.25" style="mix-blend-mode: overlay;isolation: isolate"/>
      <path id="Path_1722" data-name="Path 1722" d="M170.044,275.39l-2.8,17.187a1.534,1.534,0,0,1-1.506,1.245H148.3a1.535,1.535,0,0,1-1.506-1.245l-2.275-13.955-.524-3.232a1.531,1.531,0,0,1,1.506-1.809h23.04A1.531,1.531,0,0,1,170.044,275.39Z" fill="#b8e3e2"/>
      <path id="Path_1723" data-name="Path 1723" d="M172.7,278.893H141.34l.827-4.682a2.07,2.07,0,0,1,2.03-1.7h25.651a2.061,2.061,0,0,1,2.021,1.7Z" fill="#86bfbc"/>
      <path id="Path_1724" data-name="Path 1724" d="M161.033,265.912a23.389,23.389,0,0,0,.213,6.6h-4.1a15.025,15.025,0,0,0,.311-2.962,22.493,22.493,0,0,0-4.592-13.7c-.54-.646-1.08-1.285-1.628-1.94V253.9a25.837,25.837,0,0,1,2.078-9.06c.238,4.133,1.253,11.319,5.378,12.081,3.135.572,7.219-2.538,10.329-5.55-1.645,2.955-3.225,5.983-4.534,8.93A22.318,22.318,0,0,0,161.033,265.912Z" opacity="0.25" style="mix-blend-mode: overlay;isolation: isolate"/>
      <path id="Path_1725" data-name="Path 1725" d="M158.708,293.822H148.3a1.535,1.535,0,0,1-1.506-1.245l-2.234-13.684h8.995a25.89,25.89,0,0,0,.188,8.266A12.284,12.284,0,0,0,158.708,293.822Z" opacity="0.25" style="mix-blend-mode: overlay;isolation: isolate"/>
    </g>
    <g id="Group_3105" data-name="Group 3105" transform="translate(169.769 206.693)">
      <rect id="Rectangle_1158" data-name="Rectangle 1158" width="52.583" height="41.15" rx="3.988" transform="translate(188.987 111.095)" fill="#383873"/>
      <path id="Subtraction_1" data-name="Subtraction 1" d="M-14001.769,6303.555a10.929,10.929,0,0,1-7.779-3.222,10.927,10.927,0,0,1-3.221-7.779,11.021,11.021,0,0,1,2.466-6.939,11.041,11.041,0,0,1,6.173-3.8l2.738,10.62h10.623v.062c0,.021,0,.041,0,.062a11.1,11.1,0,0,1-3.746,8.271A10.854,10.854,0,0,1-14001.769,6303.555Z" transform="translate(14218 -6161.25)" fill="#fff" opacity="0.3"/>
      <path id="Intersection_1" data-name="Intersection 1" d="M-14001.392,6292.431l-2.738-10.62a11.034,11.034,0,0,1,2.361-.254,11,11,0,0,1,11,10.874Z" transform="translate(14219 -6162.25)" fill="#fff"/>
    </g>
    <g id="Group_3108" data-name="Group 3108" transform="translate(169.769 206.693)">
      <g id="Group_3107" data-name="Group 3107">
        <g id="Group_3106" data-name="Group 3106">
          <path id="Path_1730" data-name="Path 1730" d="M257.916,114.621a1.886,1.886,0,0,0,2.063-2.125,23.985,23.985,0,0,0-.182-2.579,25.752,25.752,0,0,1-.182-2.671,3.51,3.51,0,0,1,3.824-3.884h.364v1.578h-.455c-1.275,0-1.791.91-1.791,2.276a18.222,18.222,0,0,0,.183,2.306c.06.789.151,1.518.151,2.246.03,2.367-.789,3.186-2.094,3.551v.06c1.3.4,2.124,1.214,2.094,3.611,0,.759-.091,1.518-.151,2.276a19.211,19.211,0,0,0-.183,2.337c0,1.366.455,2.307,1.821,2.307h.425v1.578h-.4c-2,0-3.793-1-3.793-3.885a26.336,26.336,0,0,1,.182-2.7,25.74,25.74,0,0,0,.182-2.609,1.919,1.919,0,0,0-2.063-2.155Z" fill="#383873"/>
          <path id="Path_1731" data-name="Path 1731" d="M288.853,116.138a1.92,1.92,0,0,0-2.064,2.155,25.74,25.74,0,0,0,.182,2.609,26.335,26.335,0,0,1,.183,2.7c0,2.883-1.791,3.885-3.794,3.885h-.395V125.91h.425c1.366-.152,1.821-.941,1.821-2.307,0-.819-.091-1.578-.152-2.337a19.157,19.157,0,0,1-.182-2.276c-.03-2.4.789-3.216,2.094-3.611v-.06c-1.305-.365-2.124-1.184-2.094-3.551a19.737,19.737,0,0,1,.182-2.246c.061-.728.152-1.487.152-2.306,0-1.366-.516-2.124-1.79-2.276h-.456v-1.578h.365a3.51,3.51,0,0,1,3.824,3.884,25.751,25.751,0,0,1-.183,2.671,23.985,23.985,0,0,0-.182,2.579,1.887,1.887,0,0,0,2.064,2.125Z" fill="#383873"/>
        </g>
      </g>
      <path id="Path_1732" data-name="Path 1732" d="M278.44,118.344v-5.838l-5.056-2.919-5.056,2.919v5.838l5.056,2.919Z" fill="#cf0001"/>
    </g>
    <g id="Group_3109" data-name="Group 3109" transform="translate(169.769 206.693)">
      <path id="Path_1733" data-name="Path 1733" d="M316.476,147.43a12.331,12.331,0,0,0-14.713,19.23l-1.853-.22a.409.409,0,0,0-.1.813l2.822.335a.407.407,0,0,0,.455-.358l.325-2.731a.409.409,0,0,0-.813-.1l-.207,1.739a11.513,11.513,0,0,1,13.715-17.98.409.409,0,1,0,.365-.732Z" fill="#cf0001"/>
      <path id="Path_1734" data-name="Path 1734" d="M305.851,170.079a12.331,12.331,0,0,0,14.713-19.23l1.852.22a.409.409,0,1,0,.1-.813l-2.823-.335a.407.407,0,0,0-.454.358l-.325,2.731a.409.409,0,1,0,.812.1l.207-1.739a11.513,11.513,0,0,1-13.715,17.98.409.409,0,1,0-.364.732Z" fill="#cf0001"/>
    </g>
    <g id="Group_3110" data-name="Group 3110" transform="translate(169.769 206.693)">
      <path id="Path_1735" data-name="Path 1735" d="M415.312,193.053H341.238a2.445,2.445,0,0,1-2.445-2.444h0a2.445,2.445,0,0,1,2.445-2.445h74.074a2.444,2.444,0,0,1,2.444,2.445h0A2.444,2.444,0,0,1,415.312,193.053Z" fill="#cf0001"/>
      <path id="Path_1736" data-name="Path 1736" d="M388.861,203.68H341.238a2.445,2.445,0,0,1-2.445-2.444h0a2.445,2.445,0,0,1,2.445-2.445h47.623a2.445,2.445,0,0,1,2.445,2.445h0A2.445,2.445,0,0,1,388.861,203.68Z" fill="#ff9a7b"/>
      <path id="Path_1737" data-name="Path 1737" d="M388.861,215.09H341.238a2.445,2.445,0,0,1-2.445-2.445h0a2.445,2.445,0,0,1,2.445-2.445h47.623a2.445,2.445,0,0,1,2.445,2.445h0A2.445,2.445,0,0,1,388.861,215.09Z" fill="#ff9a7b"/>
    </g>
    <g id="Group_3111" data-name="Group 3111" transform="translate(169.769 206.693)">
      <path id="Path_1738" data-name="Path 1738" d="M152.667,152.433H114.19a2.445,2.445,0,0,1-2.445-2.444h0a2.445,2.445,0,0,1,2.445-2.445h38.477a2.445,2.445,0,0,1,2.444,2.445h0A2.444,2.444,0,0,1,152.667,152.433Z" fill="#ff9a7b"/>
      <path id="Path_1739" data-name="Path 1739" d="M138.14,163.06H114.19a2.445,2.445,0,0,1-2.445-2.445h0a2.445,2.445,0,0,1,2.445-2.444h23.95a2.445,2.445,0,0,1,2.445,2.444h0A2.445,2.445,0,0,1,138.14,163.06Z" fill="#cf0001"/>
      <path id="Path_1740" data-name="Path 1740" d="M138.14,174.47H114.19a2.445,2.445,0,0,1-2.445-2.445h0a2.445,2.445,0,0,1,2.445-2.444h23.95a2.445,2.445,0,0,1,2.445,2.444h0A2.445,2.445,0,0,1,138.14,174.47Z" fill="#cf0001"/>
    </g>
    <g id="Group_3112" data-name="Group 3112" transform="translate(169.769 206.693)">
      <path id="Path_1741" data-name="Path 1741" d="M381.94,329.655a119.631,119.631,0,0,1-8.258,18.514c-10.354,18.915-22.378,30.946-22.828,48.585a105.574,105.574,0,0,1-.736-35.547c1.677-10.632,5.475-21.993,13.243-31.552,21.616-26.585,18.415-50.762,18.415-50.762S392.613,298.724,381.94,329.655Z" fill="#169799"/>
      <path id="Path_1742" data-name="Path 1742" d="M356.874,375.989s-2.572-13.659,10.922-33.5,17.675-56.89,13.98-63.6" fill="none" stroke="#000" stroke-linecap="round" stroke-miterlimit="10" stroke-width="0.818" opacity="0.25" style="mix-blend-mode: overlay;isolation: isolate"/>
      <path id="Path_1743" data-name="Path 1743" d="M373.682,348.169c-10.354,18.915-22.378,30.946-22.828,48.585a105.574,105.574,0,0,1-.736-35.547C356.829,358.465,366.266,354,373.682,348.169Z" opacity="0.25" style="mix-blend-mode: overlay;isolation: isolate"/>
      <path id="Path_1744" data-name="Path 1744" d="M356.856,415.426s-7.56-12.928,10.333-28.879,31.9-37.049,29.173-54.118c-17.115,19.885-62.625,48.081-49.789,82.994Z" fill="#20c3c5"/>
      <path id="Path_1745" data-name="Path 1745" d="M396.362,332.429s-5.39,13.129-22.949,27.221-28.007,40.385-21.3,55.811" fill="none" stroke="#000" stroke-linecap="round" stroke-miterlimit="10" stroke-width="0.818" opacity="0.25" style="mix-blend-mode: overlay;isolation: isolate"/>
    </g>
    <g id="Group_3113" data-name="Group 3113" transform="translate(169.769 206.693)">
      <path id="Path_1746" data-name="Path 1746" d="M100.057,321.779S90.721,313.271,85.762,292c28.59,24.238,35.592,45.825,35.592,45.825Z" fill="#169799"/>
      <path id="Path_1747" data-name="Path 1747" d="M85.762,292s17.657,25.643,21.811,35.443" fill="none" stroke="#000" stroke-linecap="round" stroke-miterlimit="10" stroke-width="0.818" opacity="0.25" style="mix-blend-mode: overlay;isolation: isolate"/>
      <path id="Path_1748" data-name="Path 1748" d="M120.772,333.739c-5.14-4.633-12.752-9.224-20-14.168C91.143,313,82.164,305.78,80.5,296.965c-3.782,31.814,33.222,46.137,33.222,46.137l.073.107,13.44,19.6S132.73,344.535,120.772,333.739Z" fill="#20c3c5"/>
      <path id="Path_1749" data-name="Path 1749" d="M80.5,296.965s-.576,11.394,11.094,21.021,35.69,17.592,35.641,44.825" fill="none" stroke="#000" stroke-linecap="round" stroke-miterlimit="10" stroke-width="0.818" opacity="0.25" style="mix-blend-mode: overlay;isolation: isolate"/>
    </g>
    <path id="Path_1750" data-name="Path 1750" d="M384.206,429.622H135.6a7.1,7.1,0,0,1-7.1-7.1h0a7.1,7.1,0,0,1,7.1-7.1h248.61a7.1,7.1,0,0,1,7.1,7.1h0A7.1,7.1,0,0,1,384.206,429.622Z" transform="translate(169.769 206.693)" fill="#eaf9f8" opacity="0.2"/>
  </g>
</svg>
