<svg xmlns="http://www.w3.org/2000/svg" xmlns:xlink="http://www.w3.org/1999/xlink" width="451" height="281" viewBox="0 0 451 281">
  <defs>
    <clipPath id="clip-path">
      <path id="SVGID" d="M338.709,363.3c-10.338,0-17.989,8.656-17.989,19a17.5,17.5,0,0,0,17.989,18c10.337,0,18.988-7.656,18.988-18A19.189,19.189,0,0,0,338.709,363.3Zm0,29a10,10,0,1,1,9.994-10A10.053,10.053,0,0,1,338.709,392.3Z" transform="translate(-320.72 -363.303)" fill="none"/>
    </clipPath>
  </defs>
  <g id="Banner_Image_2" data-name="Banner Image 2" transform="translate(-287.861 -181.344)">
    <path id="Path_1756" data-name="Path 1756" d="M338.808,277.312c67.854-25.205,137.113-3.536,183.886,45s144.818-33.456,196.878,15c35.528,33.069,19.733,118.172-28.982,155-66.215,50.053-312.851,51.175-353.78,34-69.941-29.351-1.331-82.9-33.979-135C264.314,329.842,308.822,288.451,338.808,277.312Z" transform="translate(0 -73.97)" fill="#eaf9f8" opacity="0.23"/>
    <path id="Path_1757" data-name="Path 1757" d="M804.248,2105.23c-33.965-1.661-148.745.9-183.886,2s-76.751-1.257-97.939-5-143.472-.063-137.914,10,54.352,4.955,109.932,9,180.674-.506,208.87,0,54.607-.978,90.943-3S823.936,2106.193,804.248,2105.23Z" transform="translate(-83.677 -1666.892)" opacity="0.1"/>
    <g id="Group_3125" data-name="Group 3125" transform="translate(582.596 181.344)">
      <path id="Path_1758" data-name="Path 1758" d="M2588.8,217.343a39.813,39.813,0,0,0,0-4c0-.653.038-1.357,0-2l-6-2a24.733,24.733,0,0,0-2-7l4-5a42.66,42.66,0,0,0-4-5l-6,2c-1.761-1.8-3.789-2.752-6-4l1-7a29.788,29.788,0,0,0-5-2l-4,5a34.028,34.028,0,0,0-5,0,26.028,26.028,0,0,0-3,0l-3-5a41.082,41.082,0,0,0-6,2v6a24.477,24.477,0,0,0-6,4l-6-2a26.077,26.077,0,0,0-3,4l4,5a33.924,33.924,0,0,0-3,8l-6,1a39.668,39.668,0,0,0,0,4c0,.653-.038,1.357,0,2l6,2a24.733,24.733,0,0,0,2,7l-4,5a35.494,35.494,0,0,0,3,5l6-2c1.761,1.8,3.789,2.752,6,4v7c1.686.768,3.172.526,5,1l4-5c1.454.245,2.473,1,4,1,1.039,0,1.99-.885,3-1l4,6c1.85-.377,3.275-1.324,5-2v-6a24.477,24.477,0,0,0,6-4l6,2a42.743,42.743,0,0,0,4-5l-4-5a26.907,26.907,0,0,0,3-7Zm-32.979,9c-7.054,0-11.993-5.942-11.993-13s4.939-13,11.993-13a13,13,0,0,1,0,26Z" transform="translate(-2523.782 -181.344)" fill="#fff" opacity="0.5"/>
      <g id="Group_3122" data-name="Group 3122" transform="translate(48.837 23.816)">
        <path id="Path_1759" data-name="Path 1759" d="M2899.294,387.14c-.148,0-.876-.9-1-1-.279-.233-.232.28,0,0a22.377,22.377,0,0,0,5-14,21.41,21.41,0,0,0-1-7c-.118-.344-.344-.881,0-1s.881-.344,1,0a26.215,26.215,0,0,1,1,8,21.156,21.156,0,0,1-5,14C2899.164,386.3,2899.483,387.14,2899.294,387.14Z" transform="translate(-2898.103 -363.958)" fill="#fff"/>
      </g>
      <g id="Group_3123" data-name="Group 3123" transform="translate(39.852 9.986)">
        <path id="Path_1760" data-name="Path 1760" d="M2835,266.742c-.162,0-.873.12-1,0a18.488,18.488,0,0,0-7-4c-.342-.124-.124-.658,0-1s.658-1.124,1-1c2.917,1.059,4.725,2.861,7,5a.745.745,0,0,1,0,1C2834.875,266.88,2835.18,266.742,2835,266.742Z" transform="translate(-2826.826 -260.729)" fill="#fff"/>
      </g>
      <g id="Group_3124" data-name="Group 3124" transform="translate(26.866 8.999)">
        <path id="Path_1761" data-name="Path 1761" d="M2728.672,253.061c-.294,0,.075.3,0,0-.089-.352-.353-.911,0-1a26.653,26.653,0,0,1,6-1c.364,0,0,.636,0,1s.364,0,0,0a19.906,19.906,0,0,0-5,1C2729.617,253.074,2728.725,253.061,2728.672,253.061Z" transform="translate(-2728.493 -251.061)" fill="#fff"/>
      </g>
    </g>
    <rect id="Rectangle_1166" data-name="Rectangle 1166" width="190.881" height="111.998" transform="translate(401.769 184.344)" fill="#fff"/>
    <g id="Group_3128" data-name="Group 3128" transform="translate(516.292 236.492)">
      <path id="Path_1762" data-name="Path 1762" d="M2333.577,606.027c9.124-8.69,25.313-8.233,24.985,5s.243,14.058,4,21c13.028,24.088-15.074,23.209-26.983,24s-11.1-21.556-8.994-34S2330.907,608.57,2333.577,606.027Z" transform="translate(-2285.202 -600.178)" fill="#382424"/>
      <path id="Path_1763" data-name="Path 1763" d="M2345.862,1221.662c-2.925,24.58-8.4,42.346-8.994,54s-3,58-3,58,6.4-1.012,7-2,11.585-26,10.993-42,11.992-41,11.992-41l-3-24Z" transform="translate(-2292.489 -1139.813)" fill="#383873"/>
      <path id="Path_1764" data-name="Path 1764" d="M2388.729,1303.229l-4,2c-1.244,7.794-2.786,14.784-4,21,7.28,4.709,11.381,20.407,12.992,30,.821-10.733,5.854-23.827,8.994-31Z" transform="translate(-2333.359 -1210.381)" opacity="0.15" style="isolation: isolate"/>
      <path id="Path_1765" data-name="Path 1765" d="M2475.785,1202.322s10.3,12.723,9.994,27c-.471,21.733-3.122,28.211,1,51,1.61,8.9-3,38-3,38s-4.627.18-7-1c.2-2.139-3.059-37-8.994-53-2.874-7.746-6.823-29.557-8.994-42s-2.788-15-2-15S2475.785,1202.322,2475.785,1202.322Z" transform="translate(-2399.427 -1123.473)" fill="#383873"/>
      <path id="Path_1766" data-name="Path 1766" d="M2131.273,855.812s.7-5.989,0-8-7-4-7-4,.385,9.859,1,11,4,4,4,4Z" transform="translate(-2110.88 -811.963)" fill="#f09959"/>
      <path id="Path_1767" data-name="Path 1767" d="M2183.727,901.568c-13.861,14.927-17.936,21-18.988,21-3.29-5.811-13.991-18-13.991-18l-5,3s11.146,27.709,17.989,28,20.811-9.852,20.987-11S2183.727,901.568,2183.727,901.568Z" transform="translate(-2129.355 -861.72)" fill="#20c3c5"/>
      <path id="Path_1768" data-name="Path 1768" d="M2327.174,934.568c6.78-2.762,14.859-9.143,14.99-10,.177-1.148-1-23-1-23-3.022,3.254-5.706,5.476-8,8C2330.688,918.82,2331.36,929.474,2327.174,934.568Z" transform="translate(-2286.793 -861.72)" fill="#169799"/>
      <path id="Path_1769" data-name="Path 1769" d="M2401.139,826.762s14.094,6.224,16.99,18-5.943,26.236-7,34-24.985,9.31-24.985,1c0-7.967-6.338-24.692-6-29,.8-10.107,14.991-22,14.991-22Z" transform="translate(-2332.776 -796.912)" fill="#20c3c5"/>
      <path id="Path_1770" data-name="Path 1770" d="M2443.833,711.166l5,17s-5.585,4.706-15.99,16c.4-7.515,6-15,6-15l-4-17Z" transform="translate(-2378.468 -696.315)" fill="#f09959"/>
      <path id="Path_1771" data-name="Path 1771" d="M2461.6,719.166l-2-8-8.995,1,4,17s-.379-.055-1,1C2457.659,727.152,2460.353,723.782,2461.6,719.166Z" transform="translate(-2394.233 -696.315)" fill="#e38540"/>
      <path id="Path_1772" data-name="Path 1772" d="M2384.736,659.238c-1.536,5.591-6.767,8.162-10.993,7s-5.533-6.409-4-12,6.767-9.162,10.993-8S2386.272,653.647,2384.736,659.238Z" transform="translate(-2323.37 -640.389)" fill="#f09959"/>
      <path id="Path_1773" data-name="Path 1773" d="M2382.02,1092.787c1.844,11.691-5,37-5,37s4.751,1.185,16.989,0,17.146-13.659,18.988-14,3.089,11.074,4,12,1.376-14.82-1-21c-4.211-10.955-3.573-15.362-2-22C2416.8,1072.986,2382.02,1092.787,2382.02,1092.787Z" transform="translate(-2330.646 -1017.938)" fill="#20c3c5"/>
      <path id="Path_1774" data-name="Path 1774" d="M2248.074,2027.879c1.1,4.481-1.085,8.409-4,11-2.369,2.107-9.345,2.946-8.994,4s9.1,1.439,11.992,1,3.392-2,7-2c2.362,0,3.052-1.624,2-4s-1.951-3.87-1-6S2248.074,2027.879,2248.074,2027.879Z" transform="translate(-2206.694 -1840.032)" fill="#0c2059"/>
      <path id="Path_1775" data-name="Path 1775" d="M2610.167,2006.379c-.175,4.652-1.14,7.843,0,10,4.405,3.687,8.395,8.711,7,9-6.668,1.378-9.219-2.864-12.992-4-4.63-1.395.814-7.534-1-15-1.008-4.151,7-3,7-3Z" transform="translate(-2525.814 -1818.533)" fill="#0c2059"/>
      <path id="Path_1776" data-name="Path 1776" d="M2469.7,936.651a24.425,24.425,0,0,0-1-4c-4.211-10.955-3.573-15.362-2-22a2.4,2.4,0,0,0,0-1c.355-1.184.709-2.793,1-4l-1-13-10.993-12c-7.723,11.324-1.84,25.231-3,33s-14.991,18-14.991,18l1,3a7.208,7.208,0,0,0,7.995,6c5.334-.74,11.877-3.109,14.991-6C2464.713,931.854,2467.933,934.21,2469.7,936.651Z" transform="translate(-2383.344 -843.802)" fill="#169799"/>
      <path id="Path_1777" data-name="Path 1777" d="M2397.279,1263.09s-6.313,1.642-7,2-1,3-1,3-3.251,1.994-2,3,3.039,4.185,6,3c1.816-.727,3.807-7.946,5-8S2397.279,1263.09,2397.279,1263.09Z" transform="translate(-2338.91 -1176.242)" fill="#f09959"/>
      <path id="Path_1778" data-name="Path 1778" d="M2468.593,869.787c6.115.173,11.06,10.44,12.992,20s4,23,4,23-9.975,8.661-19.988,11c-8.734,2.04-12.992,3-12.992,3l-2-5,20.987-13s-7.231-14.07-8-25S2463.946,869.655,2468.593,869.787Z" transform="translate(-2394.233 -833.938)" fill="#20c3c5"/>
      <rect id="Rectangle_1167" data-name="Rectangle 1167" width="15.544" height="9.876" transform="translate(0 32.916) rotate(-11.346)" fill="#f5dc95"/>
      <path id="Path_1779" data-name="Path 1779" d="M2128.611,869.252c.21-4.006-1.858-10.008-3-10s-.385,3.63-1,6C2124.281,866.536,2128.611,869.252,2128.611,869.252Z" transform="translate(-2111.216 -825.402)" fill="#f09959"/>
      <path id="Path_1780" data-name="Path 1780" d="M2382.756,638.391c.338,10.973,13.48,10.677,16.99,10s-4.686,22.625,2,24c4.908,1.01,4.541-6.514,9.994-6,2.413.227,4,4,4,4a6.482,6.482,0,0,0-2-4c-1.842-1.66-6.725-11.714-7.995-19s-9.448-11.854-11.993-12-8.994,2-8.994,2Z" transform="translate(-2335.38 -630.54)" fill="#382424"/>
      <g id="Group_3126" data-name="Group 3126" transform="translate(62.364 16.849)">
        <path id="Path_1781" data-name="Path 1781" d="M2501.761,758.433c-.173,0,.179.038,0,0-2.139-.456-3.909-3.625-4-8-.075-3.75,1.343-7.9,2-13,.265-2.059-.226-3.939,0-6,.02-.176.822-1.02,1-1s.019.824,0,1c-.227,2.067-.734,3.938-1,6-1.269,9.858-2.032,19.141,2,20,.125.027-.124,0,0,0,2.315,0,4.781-4.6,6-9,.047-.171-.171-.047,0,0s.047-.171,0,0C2506.956,751.335,2505.014,758.432,2501.761,758.433Z" transform="translate(-2497.761 -730.433)" fill="#303c60"/>
      </g>
      <g id="Group_3127" data-name="Group 3127" transform="translate(61.622 16.849)">
        <path id="Path_1782" data-name="Path 1782" d="M2494.836,760.433a2.928,2.928,0,0,1-2-1c-4.366-4.618.813-27.015,1-28,.033-.174-.173-1.033,0-1s.033.826,0,1c-.045.238-4.143,23.617,0,28,.482.509,1.308.092,2,0,2.268-.3,2.843-3.284,4-6,1.12-2.635,2.12-5.065,4-5a2.708,2.708,0,0,1,1,1c-.006.177-.822.01-1,0h0c-1.407,0-1.978,2.6-3,5-1.222,2.874-2.366,5.652-5,6C2495.7,760.451,2494.965,760.433,2494.836,760.433Z" transform="translate(-2491.092 -730.433)" fill="#303c60"/>
      </g>
      <path id="Path_1783" data-name="Path 1783" d="M2487.986,725.7c-.9,1.164-2.156,1.654-3,1s-.9-2.836,0-4,2.156-1.654,3-1S2488.889,724.533,2487.986,725.7Z" transform="translate(-2423.621 -705.848)" fill="#f09959"/>
    </g>
    <g id="Group_3133" data-name="Group 3133" transform="translate(434.618 286.341)">
      <path id="Path_1784" data-name="Path 1784" d="M1604.739,1010.34a11.614,11.614,0,0,1-6,16c-6.191,2.562-12.863,1.257-15.99-5s-.995-14,5-17S1601.612,1004.083,1604.739,1010.34Z" transform="translate(-1557.639 -1000.34)" fill="#303c60"/>
      <g id="Group_3129" data-name="Group 3129" transform="translate(22.856 9.911)">
        <path id="Path_1785" data-name="Path 1785" d="M1583.372,1071.968a6.988,6.988,0,0,1-4-2,8.6,8.6,0,0,1-3-5,20,20,0,0,1,1-10c.058-.168.832-.058,1,0s.058-.167,0,0a20.691,20.691,0,0,0-1,10,9.178,9.178,0,0,0,3,5c2.193,1.947,2.983,1,3,1,.17-.044.953.831,1,1s-.83-.048-1,0C1583.351,1071.974,1583.673,1071.968,1583.372,1071.968Z" transform="translate(-1576.117 -1054.88)" fill="#303c60"/>
      </g>
      <g id="Group_3132" data-name="Group 3132" transform="translate(0 32)">
        <path id="Path_1786" data-name="Path 1786" d="M1688.847,1242.959c3.559.8,8.793,10.66,10.993,17,2.219,6.394,5.532,14.535,7.995,17s18.988,8,18.988,8-39.8.079-38.976,0S1688.847,1242.959,1688.847,1242.959Z" transform="translate(-1649.742 -1239.96)" fill="#a8ceff"/>
        <path id="Path_1787" data-name="Path 1787" d="M1721.4,1281.958c-2.19-.313-10.358.408-7-1s3-3,3-3-5.136,3.489-6,0c-.742-3.009-1.183-13.353-4-24-2.326-5.279-5.435-10.426-8-11,0,0,.148,3.743,0,9,.982,11.632,2.575,28.692,3,33,5.3.008,14.565.01,21.986,0l5-1S1723.586,1282.271,1721.4,1281.958Z" transform="translate(-1660.304 -1239.96)" fill="#93bbf0"/>
        <path id="Path_1788" data-name="Path 1788" d="M1506.628,1225.5s-11.352,6.654-13.991,8,7.763,41.306,9.994,43,21.749.133,23.985-2-1.935-8.891,0-22-5.989-24.025-7-24-7-3-7-3Z" transform="translate(-1480.514 -1225.5)" fill="#a8ceff"/>
        <path id="Path_1789" data-name="Path 1789" d="M1502.863,1330.919c2.231,1.693,16,1.863,21.986,0,.675-.21,3.926-1.851,4-3-.722-.136-3.833.268-5,0-4.047-.93-6-6-6-6s-2.011-.887-7-3-2.881-8.183-3-11-4.96-12.017-13.991-19h-1C1492.225,1295.341,1500.8,1329.353,1502.863,1330.919Z" transform="translate(-1480.747 -1279.922)" fill="#93bbf0"/>
        <g id="Group_3131" data-name="Group 3131" transform="translate(44.103 19.844)">
          <path id="Path_1790" data-name="Path 1790" d="M1898.434,1372.283h-26.983l-12.992,26h29.981l10.993-24C1899.981,1373.117,1899.722,1372.283,1898.434,1372.283Z" transform="translate(-1842.47 -1372.128)" fill="#b8e3e2"/>
          <g id="Group_3130" data-name="Group 3130">
            <path id="Path_1791" data-name="Path 1791" d="M1750.776,1398.533h-16.99c-1.018,0-1-.982-1-2s-.018-2,1-2h15.99l9.994-22c.429-.923,1.076-1.428,2-1s1.428,1.077,1,2l-10.993,23C1751.473,1397.183,1751.493,1398.533,1750.776,1398.533Z" transform="translate(-1732.787 -1371.379)" fill="#86bfbc"/>
          </g>
        </g>
        <path id="Path_1792" data-name="Path 1792" d="M1641.389,1532.848c7.116,1.33,9.113,2.374,12.992,3,4.4.709,4.265,2,1,2s-12.174.626-14.991,0S1641.389,1532.848,1641.389,1532.848Z" transform="translate(-1608.281 -1491.85)" fill="#f09959"/>
        <path id="Path_1793" data-name="Path 1793" d="M1409.92,1285.476c-5.454,17.447-13.224,37-11.993,37s31.748,1.055,32.979,0,1.175-4.472,1-5-17.989-4-17.989-4,2.119-4.154,3-13S1410.954,1282.168,1409.92,1285.476Z" transform="translate(-1397.797 -1276.478)" fill="#a8ceff"/>
      </g>
      <path id="Path_1794" data-name="Path 1794" d="M1605.013,1110.521l-5,16s7.953,12.03,9.994,11-2-9.859-2-11,4-13,4-13Z" transform="translate(-1573.902 -1093.522)" fill="#f09959"/>
      <path id="Path_1795" data-name="Path 1795" d="M1628.406,1127.521c-.095-.38-1-.847-1-1,0-1.14,4-13,4-13l-7-3-2,6C1623.68,1122.012,1626.431,1125.1,1628.406,1127.521Z" transform="translate(-1593.298 -1093.522)" fill="#e38540"/>
      <path id="Path_1796" data-name="Path 1796" d="M1654.146,1061.541c.837,4.658.136,10.427-4,12s-8.985-.715-10.993-6-.136-11.427,4-13S1653.147,1055.976,1654.146,1061.541Z" transform="translate(-1607.045 -1044.54)" fill="#f09959"/>
      <path id="Path_1797" data-name="Path 1797" d="M1621.886,1114.053c.579,1.628.2,2.572-1,3s-2.419-.371-3-2-.2-2.572,1-3S1621.307,1112.424,1621.886,1114.053Z" transform="translate(-1588.777 -1094.053)" fill="#f09959"/>
      <path id="Path_1798" data-name="Path 1798" d="M1633.935,1039.889c-1.407,10.93-14.991,10-14.991,10s-2.766-3.888-4-2,2.378-10.591,9.994-11C1627.443,1036.754,1633.935,1039.889,1633.935,1039.889Z" transform="translate(-1586.834 -1028.888)" fill="#303c60"/>
      <ellipse id="Ellipse_383" data-name="Ellipse 383" cx="7.495" cy="6.5" rx="7.495" ry="6.5" transform="translate(19.118)" fill="#303c60"/>
    </g>
    <g id="Group_3136" data-name="Group 3136" transform="translate(446.74 362.338)">
      <g id="Group_3135" data-name="Group 3135" transform="translate(0 2.967)">
        <path id="Path_1799" data-name="Path 1799" d="M1492.869,1851.858h2l9.994-50h-3Z" transform="translate(-1492.869 -1772.827)" fill="#cf0001"/>
        <path id="Path_1800" data-name="Path 1800" d="M1788.714,1840.388h-2l-11.993-51h4Z" transform="translate(-1737.746 -1761.355)" fill="#cf0001"/>
        <g id="Group_3134" data-name="Group 3134" transform="translate(0.994)">
          <path id="Path_1801" data-name="Path 1801" d="M1517.979,1607.445c-6.585,0-11.329-1.405-13.991-4-3.3-3.217-3.988-7.508-4-14-.008-5.109.277-8.31,0-11-.1-1.013.987-1.9,2-2s1.894-.013,2,1c.29,2.82-.008,6.76,0,12,.01,6.579.963,10.016,3,12,2.087,2.035,5.619,3.16,11.993,3a70.83,70.83,0,0,0,13.991-2c4.477-.911,8.156-1.834,11.993,0,.918.439.439,2.081,0,3s-1.081.439-2,0c-2.723-1.3-4.8-.853-8.994,0a79.349,79.349,0,0,1-14.991,2C1518.473,1607.457,1518.459,1607.445,1517.979,1607.445Z" transform="translate(-1499.983 -1576.412)" fill="#cf0001"/>
        </g>
      </g>
      <path id="Path_1802" data-name="Path 1802" d="M1521.9,1574.008l9.994,1-3,28s-7.113-4.836-7-10S1521.9,1574.008,1521.9,1574.008Z" transform="translate(-1517.905 -1572.008)" fill="#2e5b9a"/>
      <path id="Path_1803" data-name="Path 1803" d="M1890.946,1590.6c8.523-1.294,10.774-.713,15.99,9s12,26.74,15.99,29c6.013,3.4,8.525,12.375,10.993,12s3.685.766,1,3-6.511,3.4-7.995,3-3.121-6.917-7-9-2.253-3.158-2-5-11.271-10.452-19.988-21c-5.327-6.445-8.588-11.145-8.994-15A7.277,7.277,0,0,1,1890.946,1590.6Z" transform="translate(-1836.979 -1585.601)" fill="#f09959"/>
      <path id="Path_1804" data-name="Path 1804" d="M1911.933,1625.6c-1.979-5.025-4.13-13.4-6-21-2.654-10.812-5.233-12.846-7-14a20.057,20.057,0,0,0-8,0,7.277,7.277,0,0,0-2,6c.406,3.855,3.668,8.555,8.994,15,4.59,5.553,9.964,10.259,13.991,14Z" transform="translate(-1836.979 -1585.603)" fill="#e38540"/>
      <path id="Path_1805" data-name="Path 1805" d="M1864.839,1599.6s-1.886,16.26-4,18c-1.51,1.245-2.942,2.106-4-3s2-25,2-25Z" transform="translate(-1808.872 -1585.601)" fill="#2e5b9a"/>
      <path id="Path_1806" data-name="Path 1806" d="M1766.93,1628.632l-20.987,3,11.993-17,8.995-2,6,2Z" transform="translate(-1712.964 -1605.631)" fill="#f09959"/>
      <path id="Path_1807" data-name="Path 1807" d="M2103.594,1911.869c-.68,2.744-1.182,4.984,0,6s6,8,6,8h1l-3-7Z" transform="translate(-2022.644 -1864.87)" fill="#2e5b9a"/>
      <path id="Path_1808" data-name="Path 1808" d="M2113.033,1925.025c1.484.4,5.309-.766,8-3s1.469-3.375-1-3a6.154,6.154,0,0,1-1,0c-1.233,2.756-4.687,4.912-6,2-1.3-2.885-6.756-8.771-8.994-10,.005.045.005-.039,0,0-.254,1.842-1.876,2.917,2,5S2111.549,1924.628,2113.033,1925.025Z" transform="translate(-2023.088 -1864.025)" fill="#2e5b9a"/>
      <path id="Path_1809" data-name="Path 1809" d="M1550.91,1594.814c-7.446,13.37-3.053,21.134,6,22s23.652-.076,31.98-7,14.946-14.907,13.991-16S1550.91,1594.814,1550.91,1594.814Z" transform="translate(-1539.916 -1588.814)" fill="#e38540"/>
      <path id="Path_1810" data-name="Path 1810" d="M1884.278,1621.648c1.525-4.577,3.593-8.936,7-9,3.578-.067,5.843,2.143,6,8,.182,6.974.322,29.729,0,40-.244,7.774,2.19,10.895,2,19-.144,6.1,5.51,2.834,3,6-1.728,2.177-6.835,1.4-9.994,1-2.814-.358,1.9-8.743-2-11-3.343-1.936-3.11-4.62-1-7s-.591-10.071-2-15-3.563-10.345-5-22C1881.87,1628.326,1883.347,1624.444,1884.278,1621.648Z" transform="translate(-1831.31 -1605.648)" fill="#f09959"/>
      <path id="Path_1811" data-name="Path 1811" d="M1932.338,2045.947c-1.077.329-1.841-.039-3,0-2.346.078-3.841-2.492-4-6-.136-3.062-1.718-8.044-4-10-.042.056.046.948,0,1-2.111,2.38-2.343,5.064,1,7,3.9,2.257-.816,10.641,2,11,3.159.4,8.266,1.177,9.994-1C1935.969,2045.89,1934.17,2046.218,1932.338,2045.947Z" transform="translate(-1863.381 -1967.948)" fill="#2e5b9a"/>
      <path id="Path_1812" data-name="Path 1812" d="M1913.613,2025.26s-3.311,3.513-3,5,1.823,5.1,2,8a59.163,59.163,0,0,1,0,6s.9.35,1,0,1-12,1-12Z" transform="translate(-1855.649 -1963.261)" fill="#2e5b9a"/>
      <path id="Path_1813" data-name="Path 1813" d="M1535.966,1589.6s-4.581,18.8,1,24,29.521,1.311,34.978,1c3.695-.211,7,4,7,4s-2.759-10.549-1-19,5-9,5-9l-4-1Z" transform="translate(-1528.969 -1585.601)" fill="#75a1de"/>
      <path id="Path_1814" data-name="Path 1814" d="M1532.993,1553.266c1.889,4.009-2.374,10-1,12s9.835,1.152,14.991-3,14.991-5,14.991-5Z" transform="translate(-1526.997 -1553.266)" fill="#a8ceff"/>
      <path id="Path_1815" data-name="Path 1815" d="M1562.995,1777.555c15.6.587,31.98.326,31.98-2s-.911-3.939-12.992-3-20.349,1.822-23.985,1S1562.995,1777.555,1562.995,1777.555Z" transform="translate(-1549.002 -1743.554)" fill="#cf0001"/>
    </g>
    <rect id="Rectangle_1168" data-name="Rectangle 1168" width="222.861" height="4" rx="2" transform="translate(405.767 364.34)" fill="#cf0001"/>
    <g id="Group_3141" data-name="Group 3141" transform="translate(560.079 291.759)">
      <path id="Path_1816" data-name="Path 1816" d="M2985.975,1088.7c1.511,5.331-1.93,10.846-6,12s-7.483-2.669-8.994-8,.931-9.846,5-11S2984.464,1083.368,2985.975,1088.7Z" transform="translate(-2889.443 -1073.117)" fill="#f09959"/>
      <path id="Path_1817" data-name="Path 1817" d="M2881.907,1925.307s10.585,15.3,11.992,16,4.317,1.36,3,4-1.767,12.471-3,13-11.577,1.76-9.994,0,3.2-.831,4-4,1.5-8.768,0-10-10.993-12-10.993-12Z" transform="translate(-2808.361 -1805.728)" fill="#f09959"/>
      <path id="Path_1818" data-name="Path 1818" d="M2374.977,1977.172s-13.644,21.122-15.99,23-9.332,4.53-3,5,9-1.826,12.992-3,8.873-1.948,7-5-1.047-9.775,3-14S2374.977,1977.172,2374.977,1977.172Z" transform="translate(-2353.399 -1851.593)" fill="#f09959"/>
      <path id="Path_1819" data-name="Path 1819" d="M2543.365,1609.619s-31.54-1.21-43.973,9c-7.272,11.032-24.616,44.412-25.984,48,.938.939,6.649,2.235,8.994,2,6.92-8.256,15.35-15.524,18.988-22,4.483-7.981,6.719-12.3,13.991-13s23.057-3,27.983-3S2543.365,1609.619,2543.365,1609.619Z" transform="translate(-2457.827 -1532.039)" fill="#6791c9"/>
      <path id="Path_1820" data-name="Path 1820" d="M3125.253,1865.241h-2l-11.993-49h4Z" transform="translate(-3011.732 -1711.663)" fill="#e03c03"/>
      <path id="Path_1821" data-name="Path 1821" d="M2838.98,1853.77h2l12.992-50h-3Z" transform="translate(-2775.429 -1700.192)" fill="#2e5b9a"/>
      <path id="Path_1822" data-name="Path 1822" d="M2734.458,1593.549l-17.989,3s-23.9-.064-34.978,2c-10.075,1.878-11.56,13.226,0,29,6.567,8.96,11.632,16.941,22.986,25,2.888-2.122,4.2-2.895,5-8-.822-1.127-3.337-8.619-4-10-6.28-13.136-14.874-17.707-14.991-19,1.407-2.288,37.839,11.363,44.972,3C2742.267,1610.564,2734.458,1593.549,2734.458,1593.549Z" transform="translate(-2630.932 -1517.97)" fill="#75a1de"/>
      <path id="Path_1823" data-name="Path 1823" d="M2993.812,1278.836c-4.8-.674-9.418-.313-13.991,3-4,4.076-9.271,10.911-8.995,22,.352,14.083-1.639,15.127,1,19,11.006,4.548,29.417,23.948,24.984,3-3.21-15.168,7.269-26.174-1-43C2995.137,1281.467,2994.42,1280.277,2993.812,1278.836Z" transform="translate(-2889.286 -1244.255)" fill="#f37168"/>
      <path id="Path_1824" data-name="Path 1824" d="M2970.83,1332.036c-.214,7.342-.792,9.7,0,12,4.487.458,12.94,2.127,14.991,5,2.346,3.286,4.093,4.426,3,2s-3.458-6.185,1-18,6.378-19.784,2-28Z" transform="translate(-2889.289 -1267.457)" fill="#d54a41"/>
      <path id="Path_1825" data-name="Path 1825" d="M3053.185,1182.13a66.414,66.414,0,0,1-4-15l-8,2s5.222,9.479,1,13c-.9.749-1.919,1.9-3,3C3043.767,1181.817,3048.383,1181.456,3053.185,1182.13Z" transform="translate(-2948.658 -1147.549)" fill="#f09959"/>
      <path id="Path_1826" data-name="Path 1826" d="M3068.019,1171.863c-.458-.408-.4-1.467-1-2l-7,2h0a28.472,28.472,0,0,1,2,8,27.89,27.89,0,0,0,7-7C3068.89,1172.141,3068.1,1172.406,3068.019,1171.863Z" transform="translate(-2967.489 -1150.281)" fill="#e38540"/>
      <path id="Path_1827" data-name="Path 1827" d="M2795.076,1295.27c-7.973,2.79-6.654,10.605-13.991,23-3.8,6.414-7,7-7,7s-9.216-.682-19.988-2c-6.745-.825-7.689,1.322-3,3,9.461,3.385,20.066,6.88,27.982,6s21.289-20.738,21.986-26C2802.038,1298.993,2799.092,1293.865,2795.076,1295.27Z" transform="translate(-2696.547 -1258.688)" fill="#f09959"/>
      <g id="Group_3137" data-name="Group 3137" transform="translate(67.026 53.54)">
        <path id="Path_1828" data-name="Path 1828" d="M2890.733,1482.593c-.494,0-.479.013-1,0a79.348,79.348,0,0,1-14.991-2c-4.193-.853-6.272-1.3-8.994,0-.918.439-1.56-.081-2-1s-.918-1.561,0-2c3.836-1.834,7.515-.911,11.992,0,3.4.692,7.836.848,13.991,1,6.931.172,10.826-.6,12.992-3,1.935-2.147,2.71-5.464,2-11-.241-1.875-.787-3.624-1-5a30.98,30.98,0,0,1,0-10,102.01,102.01,0,0,1,4-18c.29-.976,2.023-2.289,3-2s1.289,2.024,1,3c-5.264,17.74-5.124,18.708-4,26,.216,1.4.752,3.078,1,5,.859,6.683-.29,11.995-3,15C2902.932,1481.69,2898.035,1482.593,2890.733,1482.593Z" transform="translate(-2863.226 -1429.553)" fill="#e03c03"/>
      </g>
      <path id="Path_1829" data-name="Path 1829" d="M2374.977,2111.279c-8.405,4.113-12.3,6.225-14.991,6-.636-.053-1.557.069-2,0-3,1.773-7.382,3.6-2,4,6.333.469,9-1.826,12.992-3s8.873-1.948,7-5A6.04,6.04,0,0,1,2374.977,2111.279Z" transform="translate(-2353.399 -1967.7)" fill="#d54a41"/>
      <path id="Path_1830" data-name="Path 1830" d="M2939.11,2056.014c-.205,6.659-.927,12.753-5,14-1.079.33-2.128,1.116-3,1-.64.792-1.95-.166-3,1-1.583,1.76,8.762.528,9.994,0s1.678-10.359,3-13C2942.193,2056.845,2940.7,2056.516,2939.11,2056.014Z" transform="translate(-2852.573 -1919.435)" fill="#d54a41"/>
      <g id="Group_3138" data-name="Group 3138" transform="translate(14.427 46.427)">
        <path id="Path_1831" data-name="Path 1831" d="M2503.868,1398.533h-25.984c-.717,0-1.7-1.349-2-2l-10.993-23c-.428-.923.077-1.571,1-2a2.584,2.584,0,0,1,3,1l9.994,22h24.985a2,2,0,0,1,0,4Z" transform="translate(-2464.738 -1371.379)" fill="#3e6bab"/>
      </g>
      <path id="Path_1832" data-name="Path 1832" d="M2649.626,1497.318c-5.4-.078-10.334-3.469-12.992-3s-12.088,6.765-10.993,7,7.76-3.946,8-4,2.321,3.072,6,4-.4-3.443,10.993,0C2658.032,1503.557,2649.626,1497.318,2649.626,1497.318Z" transform="translate(-2590.072 -1431.739)" fill="#f09959"/>
      <path id="Path_1833" data-name="Path 1833" d="M3020.561,1231.059l1,7s-7.519.044-10.993,2-7.995,8-7.995,8l4-8,1-4Z" transform="translate(-2917.035 -1203.478)" fill="#f2e5de"/>
      <path id="Path_1834" data-name="Path 1834" d="M2850.1,1289.811c-5.186-.972-7.631,3.411-10.993,11s-8.853,16.811-9.994,18-18.988,0-18.988,0-.547,5.374,0,6,3,1,3,1a7.943,7.943,0,0,1,3,1c1.173.791,10.377,3.235,14.991,3s9.368-1.3,9.994-2,13.209-20.036,13.991-27S2852.747,1290.307,2850.1,1289.811Z" transform="translate(-2749.571 -1254.23)" fill="#f2e5de"/>
      <path id="Path_1835" data-name="Path 1835" d="M2947.422,1024.814c-9.808.469-8.994,15-8.994,15s2.658.88,8,0a19.244,19.244,0,0,1,0-5s1.211,3,2,5c1.129.518,1.828-.475,4-1a11.367,11.367,0,0,0,7,8c2.382.749,4.181,1.408,7,0s1.495-16.1,0-19c-2.244-4.345-5.542-8.054-11.993-6A52.367,52.367,0,0,0,2947.422,1024.814Z" transform="translate(-2861.885 -1021.232)" fill="#303c60"/>
      <path id="Path_1836" data-name="Path 1836" d="M3132.113,1174.8l4,5s-4.93,11.966,7.995,17c10.123,3.942,9.571,11.014,5,18s2,13,2,13,1.158-8.539,10.993-10c13.41-1.992,18.011-19.992,7.995-29-8.288-7.454-11.379-1.311-16.989-8s-15.99-2-15.99-2l-4-5Z" transform="translate(-3029.586 -1153.223)" fill="#303c60"/>
      <g id="Group_3139" data-name="Group 3139" transform="translate(107.433 23.43)">
        <path id="Path_1837" data-name="Path 1837" d="M3205.639,1227.57c-.052,0,.049.027,0,0-.155-.085-.085.155,0,0,3.38-6.181.388-13.971-1-16-.146-.214.147.23,0,0-1.364-2.13-2.948-5.37-11.992-7a15.018,15.018,0,0,1-6-3c-3.858-2.835-8.487-5.375-17.989-1-.161.074.074-.839,0-1s-.161.074,0,0c9.844-4.533,13.988-.939,17.989,2a15.853,15.853,0,0,0,6,3c9.32,1.679,10.562,3.765,11.992,6,.145.226.859.794,1,1,.836,1.222,1.576,4.1,2,7a14.337,14.337,0,0,1-2,9C3205.581,1227.676,3205.752,1227.57,3205.639,1227.57Z" transform="translate(-3168.571 -1197.42)" fill="#303c60"/>
      </g>
      <g id="Group_3140" data-name="Group 3140" transform="translate(89.536 13.501)">
        <path id="Path_1838" data-name="Path 1838" d="M3047.071,1135.554c-.64,0-1.253-.888-2-1-3.419-.512-8.634-2.069-8.995-13-.006-.177.822.006,1,0s-.006-.177,0,0c.149,4.524,1.376,7.92,3,10a7.361,7.361,0,0,0,5,3c3.192.478,5.013-.353,6-2,.091-.152-.152-.091,0,0s1.09-.152,1,0A5.959,5.959,0,0,1,3047.071,1135.554Z" transform="translate(-3036.078 -1121.474)" fill="#303c60"/>
      </g>
    </g>
    <g id="Group_3145" data-name="Group 3145" transform="translate(330.336 293.032)">
      <path id="Path_1839" data-name="Path 1839" d="M628.72,1285.275c-11.383,6.513-26.328,33.581-22.986,38s20.987-7,20.987-7Z" transform="translate(-605.258 -1251.968)" fill="#169799"/>
      <path id="Path_1840" data-name="Path 1840" d="M811.948,1031.637c-4.347-.118-3-3.291-7.995-2-2.628.679-.583,1.352-4,1s-5.566-.23-6,2-.357,2.648-2,3-2.384,3,0,5,1.527,3.357,1,5,1.022,1.474,2,3-1.408,1.677,0,3,4,1,4,1l6-11Z" transform="translate(-766.499 -1029.328)" fill="#382424"/>
      <path id="Path_1841" data-name="Path 1841" d="M1576.035,2051.348s7.067.937,11.993-1,7.875-5.52,7-2-4.477,9.411-8,10-5.06,5-7,5-5.068-4.77-9.994-7C1565.549,2054.315,1576.035,2051.348,1576.035,2051.348Z" transform="translate(-1442.639 -1913.042)" fill="#2e5b9a"/>
      <path id="Path_1842" data-name="Path 1842" d="M1192.359,2051.348a38.371,38.371,0,0,0,7.995,6c4.787,2.64,10.421,3.806,7,5s-9.107,2.419-13.991,1c-3.426-1-6.934-1.381-7.995-3s.961-5.921,0-12C1184.593,2043.478,1192.359,2051.348,1192.359,2051.348Z" transform="translate(-1108.933 -1913.043)" fill="#2e5b9a"/>
      <path id="Path_1843" data-name="Path 1843" d="M959.139,1630.5s36.02,13.157,38.976,17,41.974,39.417,41.974,42-7,7-7,7-32.764-20.672-40.974-31-28.323-15.043-38.976-16S959.139,1630.5,959.139,1630.5Z" transform="translate(-904.696 -1551.193)" fill="#3e6bab"/>
      <path id="Path_1844" data-name="Path 1844" d="M831.987,1627.748s25.585-.939,30.981,0,16.735,1.14,8.994,23c-6.067,17.133-7.995,38-7.995,38l-11.993,3s.24-38.613,6-49a185.723,185.723,0,0,0-21.986,5c-19.783,5.661-30.981,3-30.981,3l-3-10Z" transform="translate(-776.544 -1548.441)" fill="#4476bd"/>
      <path id="Path_1845" data-name="Path 1845" d="M830.438,1137.883l-6,18,8,5,4-16Z" transform="translate(-795.981 -1123.575)" fill="#a86b48"/>
      <path id="Path_1846" data-name="Path 1846" d="M858.1,1158.882l4-14-6-7-2,7C854.88,1150.872,856.2,1155.7,858.1,1158.882Z" transform="translate(-821.649 -1123.575)" fill="#7a4e34"/>
      <path id="Path_1847" data-name="Path 1847" d="M886.9,1100.062c.2,5.515-2.693,10.575-7,11s-8.453-4.508-8.994-10,2.693-9.575,7-10S886.584,1091.36,886.9,1100.062Z" transform="translate(-836.453 -1082.753)" fill="#a86b48"/>
      <path id="Path_1848" data-name="Path 1848" d="M733.472,1270.967c-18.825,12.721-7.132,33.977-3,49,3.521,12.8,3.47,20,4,20s13.6-1.311,20.987-8a96.081,96.081,0,0,0,11.993-13s-8.9-1.746-11.993-14c-1.571-6.221-1.416-10.142-5-20S733.472,1270.967,733.472,1270.967Z" transform="translate(-708.011 -1239.659)" fill="#20c3c5"/>
      <path id="Path_1849" data-name="Path 1849" d="M802.006,1238.414l2-4s6.443,4,8.994,6,4,2,4,2,.6,7.642,0,7C809.452,1241.323,802.006,1238.414,802.006,1238.414Z" transform="translate(-776.544 -1207.105)" fill="#20c3c5"/>
      <g id="Group_3143" data-name="Group 3143" transform="translate(13.314 59.153)">
        <path id="Path_1850" data-name="Path 1850" d="M738.953,1865.241h1l11.992-49h-3Z" transform="translate(-734.801 -1772.089)" fill="#e03c03"/>
        <path id="Path_1851" data-name="Path 1851" d="M1012.752,1853.77h-2l-12.992-50h3Z" transform="translate(-959.63 -1760.617)" fill="#e03c03"/>
        <g id="Group_3142" data-name="Group 3142" transform="translate(0)">
          <path id="Path_1852" data-name="Path 1852" d="M731.3,1527.786c-6.585,0-10.33-1.405-12.992-4-3.3-3.217-3.988-7.508-4-14-.021-13.647-1.157-16.665-5-25a2.587,2.587,0,0,1,1-3c.924-.426,1.573.075,2,1,4.059,8.809,4.975,12.705,5,27,.01,6.579.963,10.016,3,12,2.088,2.035,5.618,2.159,11.993,2,6.155-.152,10.587-.308,13.991-1,4.477-.911,8.156-1.834,11.993,0,.918.439,1.438,1.081,1,2a2.583,2.583,0,0,1-3,1c-2.723-1.3-4.8-.853-8.994,0a79.348,79.348,0,0,1-14.991,2C731.8,1527.8,731.785,1527.786,731.3,1527.786Z" transform="translate(-709.165 -1481.634)" fill="#e03c03"/>
        </g>
      </g>
      <g id="Group_3144" data-name="Group 3144" transform="translate(88.422 44.784)">
        <path id="Path_1853" data-name="Path 1853" d="M1307.145,1396.126h-25.984a2.121,2.121,0,0,1-2-2c0-1.018.981-1,2-1h24.984l10.993-23c.429-.923,1.076-.429,2,0s1.428,1.077,1,2l-10.993,23A2.313,2.313,0,0,1,1307.145,1396.126Z" transform="translate(-1279.162 -1369.604)" fill="#3e6bab"/>
      </g>
      <path id="Path_1854" data-name="Path 1854" d="M807.605,1295.2s4.188,14.073,9.994,20,17.328,8.233,20.987,8c-2.917-1.173-7.76-4.154-9.994-13-1.571-6.221-1.417-10.142-5-20-2.658-7.318-10.946-11.441-14.991-13,5.048,3.628,12.052,9.453,13.991,14C824.749,1296.243,807.605,1295.2,807.605,1295.2Z" transform="translate(-781.144 -1244.889)" fill="#169799"/>
      <path id="Path_1855" data-name="Path 1855" d="M1279.545,1485.764s8.115-4.352,8.994-4,8.995,6.1,8.995,7-8-3-8-3,1.527,1.875,1,3-6.5,1.352-11.993,1S1279.545,1485.764,1279.545,1485.764Z" transform="translate(-1188.124 -1422.456)" fill="#a86b48"/>
      <path id="Path_1856" data-name="Path 1856" d="M800.511,1322.6c-7.46,15.3,17.8,30.621,32.979,32s33.979-3,33.979-3l-2-5s-31.21-4.443-31.98-5S803.243,1317,800.511,1322.6Z" transform="translate(-774.051 -1283.296)" fill="#20c3c5"/>
      <path id="Path_1857" data-name="Path 1857" d="M849.8,1124.73c.692,1.819.318,4.5-1,5s-3.306-1.181-4-3-.317-3.5,1-4A3.256,3.256,0,0,1,849.8,1124.73Z" transform="translate(-813.347 -1110.422)" fill="#a86b48"/>
      <path id="Path_1858" data-name="Path 1858" d="M878.8,1041.91c2.061-.861,3.716-2.5,3,1-.313,1.526.452,1.591,1,3s-1.373,2.218-2,3,1.251,2.061,0,3-2.832-.348-4,0c-3.48,1.039-3.042-1.43-5-2s-3.626-1.252-4,0,1.486,5.391,0,5-1.6,3.122-2,5-1.065-.852-1-3c.1-3.294-.786-5.078-2-6s-1.867-9.687,4-10,5.493-.471,8-1S877.859,1042.3,878.8,1041.91Z" transform="translate(-828.352 -1038.601)" fill="#382424"/>
    </g>
    <g id="Group_3161" data-name="Group 3161" transform="translate(292.836 194.341)">
      <g id="Group_3148" data-name="Group 3148" transform="translate(177.885 0)">
        <path id="Path_1859" data-name="Path 1859" d="M1716.262,303.41a22.248,22.248,0,0,0-21.986-22c-12.061-.154-21.795,9.931-21.986,22-.093,5.891,1.311,11,5,15a10.949,10.949,0,0,1,3,7v10c0,6.378,5.619,11,11.993,11h3c6.374,0,11.993-4.622,11.993-11v-10a10.9,10.9,0,0,1,3-7A22.464,22.464,0,0,0,1716.262,303.41Z" transform="translate(-1672.285 -281.408)" fill="#f5dc95"/>
        <path id="Path_1860" data-name="Path 1860" d="M1732.526,335.4c0-10.367-7.66-18.867-17.989-19-10.376-.133-18.823,7.617-18.988,18a18.54,18.54,0,0,0,5,13,8.8,8.8,0,0,1,2,6v9a10.043,10.043,0,0,0,9.994,10h3a10.043,10.043,0,0,0,9.994-10v-9c0-2.174,1.53-4.4,3-6C1731.615,344.035,1732.526,340.331,1732.526,335.4Z" transform="translate(-1692.546 -311.401)" fill="#fff" opacity="0.5"/>
        <g id="Group_3146" data-name="Group 3146" transform="translate(8.808 27.807)">
          <path id="Path_1861" data-name="Path 1861" d="M1759.394,512.478h-7c-.34,0-.968-.661-1-1-.013-.141-1.747-14.085-8-18-.308-.193-.193-.692,0-1s.692-.193,1,0c6.095,3.819,7.662,15.165,8,18h6a33.715,33.715,0,0,1,7.995-18,.707.707,0,0,1,1,1c-8.215,8.948-8.005,17.91-7.995,18,.021.186.125.86,0,1S1759.582,512.478,1759.394,512.478Z" transform="translate(-1743.214 -492.286)" fill="#94bdf2"/>
        </g>
        <g id="Group_3147" data-name="Group 3147" transform="translate(7.999 21.514)">
          <path id="Path_1862" data-name="Path 1862" d="M1759.027,450.017c-2.443,0-5.486-2.117-8.994-4-4.532,2.415-8.624,5.437-10.993,4-1.114-.675-2.017-2.956-2-5,.017-1.924.929-2.366,2-3,2.373-1.406,6.484.578,10.993,3,4.6-2.454,8.628-4.441,10.993-3a4.534,4.534,0,0,1,2,4,4.436,4.436,0,0,1-2,4C1760.493,450.332,1759.719,450.017,1759.027,450.017Zm-8-4c3.613,1.922,7.326,2.984,8.995,2,.7-.412.98-1.466,1-3,.019-1.448.636-1.612,0-2C1759.413,442.035,1754.715,444.063,1751.032,446.017Zm-9.994-3a7.516,7.516,0,0,0-2,0c-.646.383-.987,1.569-1,3-.014,1.518.326,1.592,1,2,1.623.985,6.356-.079,9.994-2C1746.093,444.447,1742.957,443.018,1741.038,443.018Z" transform="translate(-1737.041 -441.531)" fill="#94bdf2"/>
        </g>
        <rect id="Rectangle_1169" data-name="Rectangle 1169" width="9.994" height="5" rx="2.5" transform="translate(16.994 63)" fill="#20c3c5"/>
        <path id="Path_1863" data-name="Path 1863" d="M1730.883,634.572v7c0,6.679,6.317,12,12.992,12h4a11.93,11.93,0,0,0,11.992-12v-7Z" transform="translate(-1723.883 -587.572)" fill="#20c3c5"/>
        <rect id="Rectangle_1170" data-name="Rectangle 1170" width="30.981" height="4" rx="2" transform="translate(6.001 45)" fill="#b8e3e2"/>
        <path id="Path_1864" data-name="Path 1864" d="M1753.206,647.625l-27.983,4c-.862.107-1.892-1.137-2-2h0c-.106-.862,1.137-1.893,2-2l26.983-3c.862-.107,1.892.138,2,1h0C1754.312,646.487,1754.068,647.518,1753.206,647.625Z" transform="translate(-1717.223 -596.624)" fill="#b8e3e2"/>
        <path id="Path_1865" data-name="Path 1865" d="M1753.206,684.4l-27.983,3c-.862.107-1.892-.138-2-1h0c-.106-.862,1.137-1.893,2-2l26.983-3c.862-.107,1.892.137,2,1h0C1754.312,683.261,1754.068,684.292,1753.206,684.4Z" transform="translate(-1717.223 -628.398)" fill="#b8e3e2"/>
        <path id="Path_1866" data-name="Path 1866" d="M1771.1,723.406l-22.986,3c-.791.1-1.9-.208-2-1v-1c-.1-.792,1.207-.9,2-1l22.986-3c.791-.1.9.208,1,1v1C1772.2,723.2,1771.893,723.308,1771.1,723.406Z" transform="translate(-1737.117 -662.406)" fill="#b8e3e2"/>
      </g>
      <g id="Group_3150" data-name="Group 3150" transform="translate(395.755 51.001)">
        <path id="Path_1867" data-name="Path 1867" d="M3344.061,695.074h13.991c0,8.107-5.889,15-13.991,15a15.227,15.227,0,0,1-14.991-15c0-8.107,6.888-14,14.991-14Z" transform="translate(-3329.07 -679.075)" fill="#ff9a7b"/>
        <g id="Group_3149" data-name="Group 3149" transform="translate(1.997)">
          <path id="Path_1868" data-name="Path 1868" d="M3474.838,679.429c0-8.162-6.833-14-14.991-14v14Z" transform="translate(-3444.857 -665.43)" fill="#383873"/>
          <path id="Path_1869" data-name="Path 1869" d="M3347.391,776.887a15.154,15.154,0,0,0,14.991,15A15.227,15.227,0,0,1,3347.391,776.887Z" transform="translate(-3347.391 -762.887)" fill="#383873"/>
          <path id="Path_1870" data-name="Path 1870" d="M3362.381,665.43c-8.157,0-14.991,5.838-14.991,14C3347.391,671.322,3354.279,665.43,3362.381,665.43Z" transform="translate(-3347.391 -665.43)" fill="#383873"/>
          <path id="Path_1871" data-name="Path 1871" d="M3459.848,791.886a15.154,15.154,0,0,0,14.991-15A15.227,15.227,0,0,1,3459.848,791.886Z" transform="translate(-3444.857 -762.887)" fill="#383873"/>
        </g>
      </g>
      <g id="Group_3151" data-name="Group 3151" transform="translate(127.921 59)">
        <rect id="Rectangle_1171" data-name="Rectangle 1171" width="2.998" height="10" rx="1.499" transform="translate(0 12)" fill="#9ec8ff"/>
        <rect id="Rectangle_1172" data-name="Rectangle 1172" width="2.998" height="7" rx="1.499" transform="translate(40.975 15)" fill="#9ec8ff"/>
        <rect id="Rectangle_1173" data-name="Rectangle 1173" width="2.998" height="22" rx="1.499" transform="translate(13.991)" fill="#9ec8ff"/>
        <rect id="Rectangle_1174" data-name="Rectangle 1174" width="3.998" height="10" rx="1.999" transform="translate(19.988 12)" fill="#9ec8ff"/>
        <rect id="Rectangle_1175" data-name="Rectangle 1175" width="2.998" height="13" rx="1.499" transform="translate(26.983 9)" fill="#9ec8ff"/>
        <rect id="Rectangle_1176" data-name="Rectangle 1176" width="2.998" height="16" rx="1.499" transform="translate(6.996 6)" fill="#9ec8ff"/>
        <rect id="Rectangle_1177" data-name="Rectangle 1177" width="2.998" height="20" rx="1.499" transform="translate(33.979 2)" fill="#9ec8ff"/>
      </g>
      <g id="Group_3153" data-name="Group 3153" transform="translate(0 11.001)">
        <g id="Group_3152" data-name="Group 3152" clip-path="url(#clip-path)">
          <path id="Path_1872" data-name="Path 1872" d="M459.023,515.81l-16.989-10-3,19A19.692,19.692,0,0,0,459.023,515.81Z" transform="translate(-424.045 -486.81)" fill="#ff9a7b"/>
          <path id="Path_1873" data-name="Path 1873" d="M479.217,453.968c.046-.075,0,0,0,0,3.573-5.989,4.278-13.894,1-20-5.987,3.138-2.934,1.854-17.989,10C479.173,454.337,476.6,452.41,479.217,453.968Z" transform="translate(-444.239 -424.969)" fill="#20c3c5"/>
          <path id="Path_1874" data-name="Path 1874" d="M321.52,368.105l17.989,7,17.989-10C349.337,350.005,327.436,352.234,321.52,368.105Z" transform="translate(-321.519 -356.106)" fill="#3e6bab"/>
          <path id="Path_1875" data-name="Path 1875" d="M328.283,479.6l3-19-17.989-7A19.178,19.178,0,0,0,328.283,479.6Z" transform="translate(-313.292 -441.595)" fill="#383873"/>
          <path id="Path_1876" data-name="Path 1876" d="M321.113,417.058h0c-.021-.461.713-.659,1-1h-1l-8.994-4a20.2,20.2,0,0,1,3-5c-.428-.157-1.768.387-2,0a18.559,18.559,0,0,0-3,5h0v1h0a23.046,23.046,0,0,0-1,3c.118-.024.878,0,1,0,.346,0-.275-.155,0,0,.161-.889.709-1.131,1-2" transform="translate(-311.118 -401.058)" fill="#fff"/>
          <path id="Path_1877" data-name="Path 1877" d="M339.008,363.763c-1.064.573-2.507.652-5,2-1.595.863-3.426,2.609-6,4h-1l-4-2c0,.462.3,1.666,0,2l4,1-3,18a18.945,18.945,0,0,1-12.992-9c-1.694-2.9-2.959-5.75-3-9-.205.074.218,0,0,0a4.269,4.269,0,0,1-1,0,20.42,20.42,0,0,0,3,10,20.865,20.865,0,0,0,13.991,10h1a12.69,12.69,0,0,0,2,0,22.178,22.178,0,0,0,8.994-2,18.271,18.271,0,0,0,8-7h1s0-1,0-1c.032-.053-.022.037,0,0h0c3.362-5.913,4.039-13.919,1-20h-1v-1h0a19.994,19.994,0,0,0-8-8,20.671,20.671,0,0,0-10.993-2,21.326,21.326,0,0,0-11.993,5,2.333,2.333,0,0,1,1,1c3.042-2.553,6.788-4.708,10.993-5,7.339-.51,14.3,3.67,17.989,10m-18.988,29,3-18,7,4c2.943,1.8,4.936,3.353,6,4l2,1C338.987,386.863,332.245,390.652,325.017,389.763Zm18.988-10h0a19.734,19.734,0,0,1-2-1l-12.992-8,9.994-6c1.571-.846,2.4-1.165,4-2,.39-.2,1.468-.722,2-1C347.793,367.416,347.105,374.27,344.005,379.763Z" transform="translate(-309.027 -351.763)" fill="#e7f3fe"/>
        </g>
      </g>
      <g id="Group_3155" data-name="Group 3155" transform="translate(70.956 8.001)">
        <path id="Rectangle_1178" data-name="Rectangle 1178" d="M8.169,0H48.795a8.17,8.17,0,0,1,8.17,8.17v8.66A8.17,8.17,0,0,1,48.795,25H8.169A8.169,8.169,0,0,1,0,16.83V8.169A8.169,8.169,0,0,1,8.169,0Z" transform="translate(0)" fill="#ff9a7b"/>
        <rect id="Rectangle_1179" data-name="Rectangle 1179" width="52.967" height="18" rx="6.6" transform="translate(1.999 6)" fill="#fff"/>
        <g id="Group_3154" data-name="Group 3154" transform="translate(2.998 1)">
          <path id="Rectangle_1180" data-name="Rectangle 1180" d="M1,0H1A1,1,0,0,1,2,1V1A1,1,0,0,1,1,2H1A1,1,0,0,1,0,1V1A1,1,0,0,1,1,0Z" fill="#fff"/>
          <path id="Rectangle_1181" data-name="Rectangle 1181" d="M1,0H1A1,1,0,0,1,2,1V1A1,1,0,0,1,1,2H1A1,1,0,0,1,0,1V1A1,1,0,0,1,1,0Z" transform="translate(3.998)" fill="#fff"/>
          <path id="Rectangle_1182" data-name="Rectangle 1182" d="M1,0H1A1,1,0,0,1,2,1V1A1,1,0,0,1,1,2H1A1,1,0,0,1,0,1V1A1,1,0,0,1,1,0Z" transform="translate(7.995)" fill="#fff"/>
        </g>
        <path id="Path_1878" data-name="Path 1878" d="M1073.81,407.461h-27.983a1.133,1.133,0,0,1-1-1c0-.467.533,0,1,0h27.983c.466,0,1-.467,1,0A1.133,1.133,0,0,1,1073.81,407.461Z" transform="translate(-1020.842 -397.46)" fill="#cf0001"/>
        <path id="Path_1879" data-name="Path 1879" d="M912.093,506.811H884.111a1.133,1.133,0,0,1-1-1c0-.467.533,0,1,0h27.983c.466,0,1-.467,1,0A1.133,1.133,0,0,1,912.093,506.811Z" transform="translate(-880.112 -483.81)" fill="#cf0001"/>
        <rect id="Rectangle_1183" data-name="Rectangle 1183" width="2.998" height="1" rx="0.5" transform="translate(33.979 22)" fill="#cf0001"/>
        <rect id="Rectangle_1184" data-name="Rectangle 1184" width="3.998" height="1" rx="0.5" transform="translate(37.976 22)" fill="#cf0001"/>
        <path id="Path_1880" data-name="Path 1880" d="M955.667,439.443H908.7a1.572,1.572,0,0,1-1-1c0-.317.683,0,1,0h46.971c.317,0,0-.317,0,0S955.984,439.443,955.667,439.443Z" transform="translate(-901.702 -425.444)" fill="#cf0001"/>
        <path id="Path_1881" data-name="Path 1881" d="M955.667,457.834H908.7c-.317,0-1,.317-1,0a1.571,1.571,0,0,1,1-1h46.971c.317,0,0,.683,0,1S955.984,457.834,955.667,457.834Z" transform="translate(-901.702 -441.834)" fill="#cf0001"/>
      </g>
      <g id="Group_3156" data-name="Group 3156" transform="translate(241.849 3.002)">
        <path id="Path_1882" data-name="Path 1882" d="M2185.206,315.943h-23.985v-14h17.989l6,6Z" transform="translate(-2161.221 -301.943)" fill="#cf0001"/>
        <path id="Path_1883" data-name="Path 1883" d="M2296.445,301.943v7h6v-1l-6-6Z" transform="translate(-2278.456 -301.943)" fill="#910007"/>
        <path id="Path_1884" data-name="Path 1884" d="M2299.379,301.943v6h6Z" transform="translate(-2281.389 -301.943)" fill="#cf0001"/>
        <path id="Path_1885" data-name="Path 1885" d="M2190.409,336.244h-10.993c-.235,0-1,.235-1,0a2.064,2.064,0,0,1,1-1h10.993c.235,0,0,.765,0,1S2190.644,336.244,2190.409,336.244Z" transform="translate(-2176.417 -331.244)" fill="#fff"/>
        <path id="Path_1886" data-name="Path 1886" d="M2190.409,352.682h-10.993c-.235,0-1,.235-1,0a2.064,2.064,0,0,1,1-1h10.993c.235,0,0,.765,0,1S2190.644,352.682,2190.409,352.682Z" transform="translate(-2176.417 -345.683)" fill="#fff"/>
        <path id="Path_1887" data-name="Path 1887" d="M2190.409,370.877h-10.993a2.064,2.064,0,0,1-1-1c0-.235.764,0,1,0h10.993c.235,0,0-.235,0,0S2190.644,370.877,2190.409,370.877Z" transform="translate(-2176.417 -360.878)" fill="#fff"/>
      </g>
      <ellipse id="Ellipse_384" data-name="Ellipse 384" cx="0.5" cy="1" rx="0.5" ry="1" transform="translate(252.843 3.001)" fill="#3e6bab"/>
      <rect id="Rectangle_1185" data-name="Rectangle 1185" width="15.392" height="18.568" transform="translate(146.849 0.564) rotate(10.935)" fill="#ff9a7b"/>
      <path id="Path_1888" data-name="Path 1888" d="M1474.917,351.09l-7.995-1c-.213-.041-.041-.787,0-1s-.213-.041,0,0l7.995,2c.213.041.041-.213,0,0S1475.13,351.131,1474.917,351.09Z" transform="translate(-1316.015 -340.089)" fill="#fff"/>
      <path id="Path_1889" data-name="Path 1889" d="M1471.362,366.3l-7.995-1c-.213-.041-.041-.787,0-1s.786-.041,1,0l7.995,2c.213.041.041-.213,0,0S1471.575,366.346,1471.362,366.3Z" transform="translate(-1313.461 -353.303)" fill="#fff"/>
      <path id="Path_1890" data-name="Path 1890" d="M1468.739,381.883l-7.995-1c-.213-.041-.041-.787,0-1s-.213-.041,0,0l7.995,2c.213.041,1.041-.213,1,0S1468.952,381.924,1468.739,381.883Z" transform="translate(-1310.838 -366.882)" fill="#fff"/>
      <path id="Path_1891" data-name="Path 1891" d="M1479.5,298.187c-.069.357.357,1.069,0,1s-1.068-.643-1-1,.643-1.069,1-1S1479.572,297.831,1479.5,298.187Z" transform="translate(-1326.598 -295.186)" fill="#3e6bab"/>
      <path id="Path_1892" data-name="Path 1892" d="M2275.417,446.386l-22.986-3,2-14,17.989,1c1.692,2.092,2.305,3.908,4,6Z" transform="translate(-1998.59 -409.386)" fill="#383873"/>
      <path id="Path_1893" data-name="Path 1893" d="M2279.314,440.076l-17.989-2-1,12,21.986,2v-7h-4Z" transform="translate(-2005.484 -417.076)" fill="#fff"/>
      <path id="Path_1894" data-name="Path 1894" d="M2307.009,471.768l-10.993-1c-.259-.027-.027-.741,0-1s-.258-.027,0,0l11.992,1c.259.027.027.742,0,1S2307.267,471.795,2307.009,471.768Z" transform="translate(-2036.177 -444.767)" fill="#9ec8ff"/>
      <path id="Path_1895" data-name="Path 1895" d="M2305.281,491.164l-10.993-2c-.258-.027-1.027.258-1,0s.741-1.027,1-1l10.993,2c.258.027,1.027-.258,1,0S2305.54,491.191,2305.281,491.164Z" transform="translate(-2034.449 -461.163)" fill="#9ec8ff"/>
      <path id="Path_1896" data-name="Path 1896" d="M2303.477,510.281l-10.993-1c-.258-.027-1.027-.742-1-1s.741-.027,1,0l10.993,1c.258.027.027.741,0,1S2303.735,510.308,2303.477,510.281Z" transform="translate(-2032.645 -478.28)" fill="#9ec8ff"/>
      <ellipse id="Ellipse_385" data-name="Ellipse 385" cx="0.5" cy="1" rx="0.5" ry="1" transform="translate(263.836 22.001)" fill="#3e6bab"/>
      <g id="Group_3158" data-name="Group 3158" transform="translate(377.766 3.002)">
        <path id="Path_1897" data-name="Path 1897" d="M3206.826,314.01c0,4.461-3.536,9-8,9s-7.995-4.539-7.995-9a7.995,7.995,0,1,1,15.99,0Z" transform="translate(-3190.836 -306.01)" fill="#20c3c5"/>
        <g id="Group_3157" data-name="Group 3157" transform="translate(3.881 5.883)">
          <path id="Path_1898" data-name="Path 1898" d="M3228.742,353.049h0c-.108,0,.072.081,0,0l-3-2a.707.707,0,1,1,1-1l2,2,4-4a.707.707,0,0,1,1,1l-5,4C3228.668,353.121,3228.845,353.049,3228.742,353.049Z" transform="translate(-3225.629 -347.933)" fill="#fff"/>
        </g>
      </g>
      <g id="Group_3159" data-name="Group 3159" transform="translate(19.44 65.497)">
        <rect id="Rectangle_1186" data-name="Rectangle 1186" width="50.883" height="20.98" rx="10.49" transform="translate(50.883 20.98) rotate(180)" fill="#383873"/>
        <path id="Path_1899" data-name="Path 1899" d="M722.814,901.289v12l-12.992-13S722.543,901.289,722.814,901.289Z" transform="translate(-678.293 -883.786)" fill="#383873"/>
        <rect id="Rectangle_1187" data-name="Rectangle 1187" width="45.62" height="16.821" rx="8.41" transform="translate(48.251 18.901) rotate(180)" fill="#fff"/>
        <path id="Path_1900" data-name="Path 1900" d="M643.079,813.656h19.988a1,1,0,0,0,0-2H643.079a1,1,0,0,0,0,2Z" transform="translate(-619.547 -807.153)" fill="#20c3c5"/>
        <rect id="Rectangle_1188" data-name="Rectangle 1188" width="39.224" height="1.016" rx="0.508" transform="translate(44.918 9.698) rotate(180)" fill="#20c3c5"/>
        <rect id="Rectangle_1189" data-name="Rectangle 1189" width="39.224" height="1.016" rx="0.508" transform="translate(44.918 11.666) rotate(180)" fill="#20c3c5"/>
      </g>
      <g id="Group_3160" data-name="Group 3160" transform="translate(349.271 67.942)">
        <rect id="Rectangle_1190" data-name="Rectangle 1190" width="4.305" height="3.877" rx="1.938" transform="translate(19.959 3.877) rotate(180)" fill="#383873"/>
        <path id="Rectangle_1191" data-name="Rectangle 1191" d="M1.938,0h.428A1.938,1.938,0,0,1,4.3,1.938v0A1.938,1.938,0,0,1,2.367,3.877H1.939A1.939,1.939,0,0,1,0,1.938v0A1.938,1.938,0,0,1,1.938,0Z" transform="translate(12.132 3.877) rotate(180)" fill="#383873"/>
        <rect id="Rectangle_1192" data-name="Rectangle 1192" width="4.305" height="3.877" rx="1.938" transform="translate(4.305 3.877) rotate(180)" fill="#383873"/>
      </g>
    </g>
    <g id="Group_3103" data-name="Group 3103" transform="translate(685.41 362.839)">
      <path id="Path_1716" data-name="Path 1716" d="M3442.234,1584.164c-.966,3.515-4.946,10.694-8.994,18-4.43,7.967-8.545,16.581-7,22,.319,1-.052,1.955,0,3,.015,2.359-1.193,1.338-3,0a32.9,32.9,0,0,1-4-3v-11s-5.886-5.028-1-17c.308-.757.6-1.184,1-2,6.73-13.605,17.551-27.956,8-32C3440.439,1561.351,3444.259,1576.809,3442.234,1584.164Z" transform="translate(-3402.076 -1561.665)" fill="#20c3c5"/>
      <path id="Path_1717" data-name="Path 1717" d="M3450.4,1561.836s6.784,1.57,8,11-17.088,34.383-13.991,43" transform="translate(-3425.736 -1561.836)" fill="none" stroke="#000" stroke-linecap="round" stroke-miterlimit="10" stroke-width="0.818" opacity="0.53" style="isolation: isolate"/>
      <path id="Path_1718" data-name="Path 1718" d="M3495.142,1895.918c-4.034,10.642.062,18.851-6,20-2.769.529-3.492-1.612-4-4-.358-2.018-1.222-4.962-1-7,.8-1.877,2.684-3.439,4-5A10.586,10.586,0,0,1,3495.142,1895.918Z" transform="translate(-3460.981 -1851.418)" fill="#169799"/>
      <path id="Path_1719" data-name="Path 1719" d="M3326.788,1786.1c-.023,2.478-.851,4.9-2,6-.105.1.116-.092,0,0-2.861,2.32-5-2-5-2a25.846,25.846,0,0,1-10.993-11c-2.893-5.857-3.807-14.524,3-25,1,7.46,4.941,12.177,8.994,17h0c.506.6,1.5,1.4,2,2A21.573,21.573,0,0,1,3326.788,1786.1Z" transform="translate(-3306.618 -1728.607)" fill="#b8e3e2"/>
      <path id="Path_1720" data-name="Path 1720" d="M3342.677,1754.631s-2.5,9.32,1,17,11.667,10.592,10.993,18" transform="translate(-3336.998 -1728.632)" fill="none" stroke="#000" stroke-linecap="round" stroke-miterlimit="10" stroke-width="0.818" opacity="0.53" style="isolation: isolate"/>
      <path id="Path_1721" data-name="Path 1721" d="M3500,1895.418s-9.781,9.513-10.993,18" transform="translate(-3465.336 -1851.418)" fill="none" stroke="#000" stroke-linecap="round" stroke-miterlimit="10" stroke-width="0.818" opacity="0.25" style="isolation: isolate"/>
      <path id="Path_1722" data-name="Path 1722" d="M3390.04,2025.469l-3,16c-.128.667-.321,1-1,1h-15.99c-.679,0-1.871-.333-2-1l-2-13v-3c-.142-.768.232-.858,1-1,.085-.016-.086,0,0,0h20.987c.781,0,2,.219,2,1C3390.04,2025.554,3390.055,2025.385,3390.04,2025.469Z" transform="translate(-3357.877 -1962.97)" fill="#b8e3e2"/>
      <path id="Path_1723" data-name="Path 1723" d="M3376.023,2021.951h-28.982l1-4c.165-.907,1.078-1,2-1h23.985c.919,0,.838.094,1,1Z" transform="translate(-3341.863 -1956.453)" fill="#86bfbc"/>
      <path id="Path_1724" data-name="Path 1724" d="M3425.3,1842.443c-.223,2.031.646,3.988,1,6h-4a16.593,16.593,0,0,0,0-3,21.575,21.575,0,0,0-4-13c-.5-.6-1.493-1.4-2-2h0a22.047,22.047,0,0,1,2-8c.22,3.817,1.19,10.3,5,11,2.893.528,7.124-2.219,9.994-5-1.518,2.729-2.789,5.278-4,8A28.921,28.921,0,0,0,3425.3,1842.443Z" transform="translate(-3402.138 -1787.945)" opacity="0.25" style="isolation: isolate"/>
      <path id="Path_1725" data-name="Path 1725" d="M3382.642,2074.816h-8.994c-.679,0-1.871-.333-2-1l-2-13h7.995c-.351,2.537.533,5.481,1,8C3379.412,2071.337,3380.447,2073.36,3382.642,2074.816Z" transform="translate(-3361.474 -1995.317)" opacity="0.25" style="isolation: isolate"/>
    </g>
  </g>
</svg>
